<svg id="Слой_1" data-name="Слой 1" xmlns="http://www.w3.org/2000/svg" viewBox="0 0 150 190"><defs><style>.cls-1{fill-rule:evenodd;}</style></defs><title>Монтажная область 29</title><path class="cls-1" d="M76.61,96.11c-53.89,0-60.82-22.46-26.48-29.93,1.3-11.3,9.76-21.8,24.89-21.8,14.93,0,23,10.31,24.24,21.49C134.51,73,126.52,96.11,76.61,96.11ZM44.69,76.23c-4.27,2.44-1.34,7.91,3.21,5.31C52.05,79.18,49,73.81,44.69,76.23Zm31,13.28c8.59,0,8.64-11.44-.15-11.44S66.27,89.51,75.67,89.51ZM56.25,69.23c8.32,5.06,28.94,5.22,36.91-.41C93.16,44.89,56.25,43.73,56.25,69.23Zm51.16,5.7c-5.77-3.28-10.28,3.79-4.13,7.29C108.89,85.42,113.15,78.21,107.41,74.93ZM61.8,117.61C68.89,115.4,77,113,77,113c-.47-2.19.08-4.31,2-5.39,0,0,2,4.32,4.72,3.55,3.13-.88,2.41-5,2.41-5,1.81-.47,3.37,1.52,3.88,3.35h0l3.26-.88c.65,2.42.26,4.64-2.12,5.28l1.26,7.9L86.17,124l5,15.5-3.85.87L84.53,133l-3,.81,1.59,8-3.83,1-2.61-7.6-4.91,1.17,2.56,7.9-3.21,1-4.53-7.64-1.25.29,1.49,8.33-3.21.8-4.53-10.87,1.44-5.46s-1.55-5.79-2-7.56C57.73,120.24,58.62,118.6,61.8,117.61Z"/></svg>