<svg id="Слой_1" data-name="Слой 1" xmlns="http://www.w3.org/2000/svg" viewBox="0 0 150 190"><defs><style>.cls-1{fill-rule:evenodd;}</style></defs><title>Монтажная область 5</title><path class="cls-1" d="M66.37,130.64c-8.68-2.47-16.64-5.95-21.41-9.22A59.14,59.14,0,0,1,57,75.34c5.72-.54,14,.08,22.36,1.82,10,2.06,19,5.37,25.43,9.25A58.38,58.38,0,0,1,93.06,134.2C85.6,134.66,76.14,133.43,66.37,130.64Zm9.8-44.2c.42-1.14.82-2.15,1.19-3l-4.7-2c-.42,1-.89,2.19-1.38,3.54l-3.44-1-1.41,4.29,3.33,1c-.56,1.64-1.13,3.41-1.71,5.28l-3.42-.91L63.43,98l3.3.91c-.49,1.67-1,3.38-1.44,5.11l-3.07-.82L61,107.57l3.13.86c-.41,1.67-.81,3.34-1.17,5l-3.55-1-1,4.42,3.61,1c-.34,1.76-.63,3.48-.88,5.13l5,.74c.21-1.44.46-3,.76-4.51l2.93.81,1-4.52-3-.8c.36-1.63.75-3.29,1.16-4.95l3.41.94,1.24-4.46-3.49-.92c.46-1.72.94-3.41,1.42-5.07l3.24.9,1.24-4.46L73,95.88c.56-1.8,1.12-3.51,1.65-5.1l3.49,1.06,1.45-4.4ZM62.26,69.58A49.08,49.08,0,0,1,83.87,57.7c1.77-.45,5.54.48,6.69,1.66a52.6,52.6,0,0,1,12,19.3,93.36,93.36,0,0,0-21.44-7A97.09,97.09,0,0,0,62.26,69.58Zm25.55,70.13a49.43,49.43,0,0,1-20.47,11.15,8.54,8.54,0,0,1-6.25-1.53A44.2,44.2,0,0,1,47,129.2a97.05,97.05,0,0,0,17.32,6.67A95.23,95.23,0,0,0,87.81,139.71Z"/></svg>