<svg id="Слой_1" data-name="Слой 1" xmlns="http://www.w3.org/2000/svg" viewBox="0 0 150 190"><defs><style>.cls-1{fill-rule:evenodd;}</style></defs><title>Монтажная область 44</title><path class="cls-1" d="M34.7,117.56,50,120l-2.77,5.47c4.88,5.26,12.24,8.77,20.27,10.14l1.72-32.78-16.89-2.54.15-6.23,17.36-2.87.31-6C56.91,80.61,59.25,59,75.14,59c15.73,0,17.37,21.38,5.37,26.09l.38,6,17.16,2.38-.15,6.23-16.3,2.88,2.05,32.82a35.57,35.57,0,0,0,19.43-10.57l-3.59-5.49,15.81-1.48C102.05,159.28,49.5,160.62,34.7,117.56ZM75,67.45c-6.61,0-6.93,10.06.12,10.06C81.57,77.51,81.61,67.45,75,67.45Z"/></svg>