<svg id="Слой_1" data-name="Слой 1" xmlns="http://www.w3.org/2000/svg" viewBox="0 0 150 190"><defs><style>.cls-1{fill-rule:evenodd;}</style></defs><title>Монтажная область 27</title><path class="cls-1" d="M105.87,101.09l9.12.45-.17,2.53-10.54,1.34-9.82-6.12-11.33,3.89,19.6,8.13,1.39,22.36,6.65,7.42L108,143.5l-9.13-9.38L96.71,115.4l-17.17-6.65-1.06,2.12c3.62,1.91,14.19,8.18,14.19,16.06,0,15.77-17.72,21.5-17.72,21.5s-17.6-6.36-17.6-21.1c0-8.33,10.64-14.87,13.71-16.59l-1-2-16.73,6.43-2.15,18.57L42,143l-2.79-2.39,6.67-7.35,1.38-22.18,19.6-8L55.58,99.22l-9.84,7.12L35.18,105,35,102.5l9.14-.44L53,92.52l12.6,3.54c0-.16.06-.32.1-.48L55.19,87.1l-.89-8.83-9-6.55,1.69-3,12.15,5.75,1.22,10.65,8.23,5.38a8.88,8.88,0,0,1,3.28-2l-6.58-7.59A12.56,12.56,0,0,1,67.13,74a28.48,28.48,0,0,1-8.67-10.06l2.44-1.48c2.49,3.33,6.73,6,10.68,7.9a8.69,8.69,0,0,1,6-.09c3.9-1.87,8-4.53,10.5-7.81l2.45,1.48A28.82,28.82,0,0,1,82,73.8a13.66,13.66,0,0,1,2,7.65l-6.43,7.09a8.66,8.66,0,0,1,3,1.91l0-.21,8.88-5.16,1.22-10.65,13.21-5.75,1.69,3L95.55,78.27l-.89,9.22L84.21,96.42,97,92.52Z"/></svg>