<svg id="Слой_1" data-name="Слой 1" xmlns="http://www.w3.org/2000/svg" viewBox="0 0 150 190"><defs><style>.cls-1{fill-rule:evenodd;}</style></defs><title>Монтажная область 61</title><path class="cls-1" d="M77.72,31c7.17,0,7.13,11,.13,11C70.18,42,70.53,31,77.72,31Zm12.4,25.53c-7.67,0-7.32-10.95-.12-10.95S97.12,56.54,90.12,56.54ZM92.75,14C105.09,14,105,32.84,93,32.84,79.77,32.84,80.36,14,92.75,14ZM47.94,68.79l.6-5.52,53.94,0L104,68.41l-3.22,6.5c26.72,17.38,23.71,62.36-8.28,73.6h-.05l-35.11-.78v0l-.15.12C24.32,135.49,23.13,91.59,50.32,74.7Zm12.35,72.42,31.05-.14c24.59-9.87,27.19-43.9,7.26-58.75-18,10-25.21-15-47.79.91C31.53,98.58,33.89,131.71,60.29,141.21ZM64,108.13a37.9,37.9,0,0,1,5.79-3.56l-2.26-3.94,14.3-8.74s4.07,5.18,5.14,8.4c6.15.38,12.14,3.4,16,11.73-4.56,7.92-11.16,9.94-17.64,9.48-2.28,3.12-8.07,3.91-14.78,3.37l4.91-5.68c-5.09-1.88-9.18-4.28-10.76-4.82-2.2,7-10.64,9-16.25,6.65,5.63-4.57,7.82-13.69-2-20.38C55.67,98.76,60.69,101.18,64,108.13Zm27.64,4.19c3.72,0,3.74-5.78-.06-5.78A2.89,2.89,0,1,0,91.64,112.32Z"/></svg>