<svg id="Слой_1" data-name="Слой 1" xmlns="http://www.w3.org/2000/svg" viewBox="0 0 150 190"><defs><style>.cls-1{fill-rule:evenodd;}</style></defs><title>Монтажная область 61</title><path class="cls-1" d="M108.42,127.64l-2-31.95,3.51-9.07-.81-1.69-4.51,4.66L94.34,79.07l6.22-5.66,15.83,3.81C117,79.11,114.9,120.33,108.42,127.64Zm-26.08-51,.2-5.23-13.63-.23,0,5.25-7.72.39L61,72l8.77-7.24L82,65l8,7.69-.14,4.67Zm21.63,72-58.83-1.19c0-23.76-.41-40.91,3.08-52.14L41.4,85.05l-1.25,1.41,3.51,11.47-2.49,29.71c-6.3-7.45-8.5-33.89-7.37-50.82L49,73.41l8.72,9C62,79.93,67.54,78.73,75,78.73,106.51,78.73,104,105.72,104,148.67Zm-47-25.17-.41,5.23,37.84.28-.21-6.46Z"/></svg>