<svg id="Слой_1" data-name="Слой 1" xmlns="http://www.w3.org/2000/svg" viewBox="0 0 150 190"><defs><style>.cls-1{fill-rule:evenodd;}</style></defs><title>Монтажная область 53</title><path class="cls-1" d="M112.85,90.52a22.39,22.39,0,0,1,14.9.93c-6.74,4.54-13.25,6.07-20.66,3l-12.67-.22L95.14,75l13.68.22-.71,13A22.84,22.84,0,0,1,120.2,77C119,82.78,116.79,87.31,112.85,90.52ZM95,60.38l13.78-.31.15,10.11-13.75-1Zm-.5-24.51,13.94.15.27,18.71-13.81.63Zm13.63,86.38-12.93-.47-.85-21.51,13.22-.76ZM68.46,58.16l-.28-22.23,15.3-.1L83,59.13ZM43.64,119.31v-.16c-7.62,2.78-14.39,1.07-21.39-3.65a24.36,24.36,0,0,1,16.17-1c-4.28-3.47-6.68-8.39-8-14.64a24.8,24.8,0,0,1,13.2,12.24v-9.41l14,0v.63l-.48,16.72Zm-.51-40.4,14.21,0L57.6,97.4l-14.07.35ZM23.26,69.68a23.25,23.25,0,0,1,15.45-1c-4.08-3.32-6.37-8-7.61-14a23.2,23.2,0,0,1,11.73,10.1l-.19-8.9,14.38,0,.25,17.71L43.8,73.14C36.48,75.84,30,74.21,23.26,69.68Zm19-32.89,14.52,0,.19,14L42.52,50Zm14.81,88.4L57,127.67l.62,19.84-12.7.62-1.25-20.81v-2.1Zm25.69-36.5-14.1-.16-.12-24.35,14.35,0ZM83.45,118l-13.57-1-1-22.81,14,0Zm0,5-.8,24.37-12.93,0L70,123Zm24.74,4.71-.87,19.18-12.56-.13.6-19.09Z"/></svg>