<svg id="Слой_1" data-name="Слой 1" xmlns="http://www.w3.org/2000/svg" viewBox="0 0 150 190"><defs><style>.cls-1{fill-rule:evenodd;}</style></defs><title>Монтажная область 8</title><path class="cls-1" d="M99.29,103l-7.2,3.49c17.94,10.83,9.86,36.26-2.47,33.21L89,125.55l-7-2.79c-4.91,12.62-13,24-23.84,27.63-2.48-.8-6-2.48-7.58-2.94-4.11-16.5,3.88-20,10.09-36.37l-7.39-6.93-11.05,8.6C33,85.9,56.43,81.17,64.91,88.51c.16-10.57-1.48-21.25-2.79-24.25l6.49-4.49C79.79,63.56,87,71.55,87.45,91.39c14.82-9.76,31.05,5.83,17.23,19.89C103.73,109.81,99.29,103,99.29,103ZM70.48,66.67c-.23.09-1.34.87-1.65,1.07,2.81,6.78,2.76,24.26,1.07,37.87,3.18,1.79,7.83,1.16,10.47-.36C83.88,87.09,80.3,71.33,70.48,66.67Z"/></svg>