<svg id="Слой_1" data-name="Слой 1" xmlns="http://www.w3.org/2000/svg" viewBox="0 0 150 190"><defs><style>.cls-1{fill-rule:evenodd;}</style></defs><title>Монтажная область 7</title><path class="cls-1" d="M77.66,148.34c-1.28,0-2.54,0-3.76-.12q.48-3.09,1.2-5.93l4.15.84,1.84-1.89-4.66-3.46a51.07,51.07,0,0,1,3.14-7.3l4.12,1.9L86,131.05,82,126.36a41.55,41.55,0,0,1,4.79-5.89l3.25,2.39,2.52-.78-2.49-4.63A42.45,42.45,0,0,1,96.62,113l3,3.44,2.3-1-1.38-4.39a49.61,49.61,0,0,1,7-2.43l2,3.9,2.6-.18-.3-4.7a61.92,61.92,0,0,1,6.26-.82C117.57,128,104,148.34,77.66,148.34ZM111,102.93l-2.37-4.49-2.61,0,0,5.52a52.57,52.57,0,0,0-7.51,2.53L95,102.76l-2.52.71,1.43,5.29a46.55,46.55,0,0,0-7,4.74L83.25,111,81,112.18l2.39,4.64A46.35,46.35,0,0,0,78,123.55l-3.49-1.37-2,1.72,3.09,3.61A54.1,54.1,0,0,0,72,136l-4.16-.44-1.44,2.18,4.26,2.87a68.13,68.13,0,0,0-1.37,7.18C47.19,144.52,35,128.52,32.38,111.11a68.17,68.17,0,0,0,8.26-1.66l1.77,3.92,2.62-1v-4.29a53.46,53.46,0,0,0,8.5-3.81l3,3.44,2.41-1.25-1.29-4.76a46,46,0,0,0,6.85-5.83l3.57,1.94,2.17-1.46-2.67-4a45.72,45.72,0,0,0,4.32-6.66L76,87.3l1.53-1.94L74,81.23A52.8,52.8,0,0,0,76.53,73l4.88-.34.6-2.4-4.59-2a64,64,0,0,0,.64-7.42c25.46,1.49,38.73,21.06,40,41.32A61.93,61.93,0,0,0,111,102.93ZM68.5,67,67,69.18l4.74,2.54a51.08,51.08,0,0,1-2.11,6.59l-3.9-2-1.73,2,3.66,4.3a42.88,42.88,0,0,1-3.84,6.08l-4-2.72-2.21,1.59,3.12,4.75a42.25,42.25,0,0,1-5.75,5l-2.94-3.2-2.63.23,1.7,5.48a48.81,48.81,0,0,1-7.2,3.4l-2.5-4.41-2.59-.47.4,6.42a64.63,64.63,0,0,1-7.35,1.6C30.8,84.3,44.81,61.58,73.38,60.79a62.65,62.65,0,0,1-.7,6.45Z"/></svg>