<svg id="Слой_1" data-name="Слой 1" xmlns="http://www.w3.org/2000/svg" viewBox="0 0 150 190"><defs><style>.cls-1{fill-rule:evenodd;}</style></defs><title>Монтажная область 3</title><path class="cls-1" d="M97.23,99.21A143.49,143.49,0,0,0,112.8,80.27a46.46,46.46,0,0,1,6.53,25.12A26.74,26.74,0,0,1,97.23,99.21ZM86.41,61.94A39.91,39.91,0,0,1,109,75.07,134.47,134.47,0,0,1,92.94,95,34.44,34.44,0,0,1,86.41,61.94ZM88.67,99.2c-3.46,3.31-7.48,6.87-12.09,10.51A170.87,170.87,0,0,1,51,67.11,46,46,0,0,1,71.89,61a58.57,58.57,0,0,1,8.51.08A40.67,40.67,0,0,0,88.67,99.2Zm-28,21.66c-7.85-8.92-19.46-15.56-29.86-17.54C31.07,91,36.08,78.76,45.93,70.63a177.52,177.52,0,0,0,25.84,42.75C68.35,115.89,64.66,118.4,60.7,120.86Zm-20.8,11a44.69,44.69,0,0,1-8.77-22.26A50.87,50.87,0,0,1,55.45,124,167,167,0,0,1,39.9,131.82Zm20.24-1.67c2.71,4.46,4.78,10.31,3.16,16.67a41.65,41.65,0,0,1-19.19-10.29c5.28-2.4,10.32-5,15.13-7.78C59.55,129.21,59.85,129.68,60.14,130.15Zm41.21,10.65c-6.67,4.64-15.19,7.46-25.53,7.46a54.8,54.8,0,0,1-6.65-.39c1.6-6.75.32-13.89-3.93-20.87-.27-.45-.56-.9-.85-1.34,3.94-2.46,7.71-5,11.3-7.67A130.35,130.35,0,0,0,101.35,140.8ZM93,103.47c7.63,6.56,16.7,9.33,25.85,8.14a44,44,0,0,1-12.54,25.16c-7.32-4.53-16.35-11.86-25.75-22.46C85,110.78,89.12,107.14,93,103.47Z"/></svg>