<svg id="Слой_1" data-name="Слой 1" xmlns="http://www.w3.org/2000/svg" viewBox="0 0 150 190"><defs><style>.cls-1{fill-rule:evenodd;}</style></defs><title>Монтажная область 59</title><path class="cls-1" d="M125.38,125l-100.81.3c0-3.36,0-6.31-.07-8.13-.19-8.25,3.82-11.24,11.09-11.24,24.33,0,59.45.18,82.31.18,4.31,0,7.73,3.7,7.64,10.45C125.51,118.4,125.45,121.47,125.38,125Zm-16.7-24.88c-1.43-4.81-.29-13,.74-15.94l-1.11-.55c-2,2.84-23.66,3.14-27.79.7l-.8.47c1.68,2.72,2.36,10.95,1.1,15.57l-9.44.08c-1.2-4.84-.8-12.26.71-15L71,84c-2,2.11-24.78,2.8-28.44.39l-1.06,1c1.81,2.85,2,10.18,1.21,15.3l-9.25.09s-.9-9.12-1.07-16.06c-.19-8.26,3.89-10.21,11.09-11.24,18-2.57,48.39-2.71,66.45.85,4.23.83,7.73,3.69,7.64,10.45C117.51,91.83,117,100,117,100Zm16.59,30.22c-.18,8.43-.37,17.1-.37,17.1h-5.47l-3.55-10.48-80.74-.06-4.7,10.61h-6s.08-9.46.1-18.14Z"/></svg>