<svg id="Слой_1" data-name="Слой 1" xmlns="http://www.w3.org/2000/svg" viewBox="0 0 150 190"><defs><style>.cls-1{fill-rule:evenodd;}</style></defs><title>Монтажная область 18</title><path class="cls-1" d="M106,116.41,93.6,106.72l-3.54.5-.65,2.53,12.26,9.65s.52,20.77,4.6,25l-2.2,1.37c-9.18-4.73-8.33-22.73-8.33-22.73L86.06,115H63.69L54,123.06s.47,17.79-8.71,22.52l-2.15-1.83c4.09-4.25,5.47-24.35,5.47-24.35L60,109.72,59.29,107l-3.44-.72-12.3,9.4S24.37,121.51,14,96.48c9-11.67,33-3.39,46.56,3.86L62,97.59,52.35,91l0-10-4.74-6.6,3.21-3.2L57,78.9l.85,8.24,8.06,5.3,1.41,0L64,82.3a11.81,11.81,0,0,1,4.09-4c-1.48-3.71-4-7.89-8-10.33l2.58-2.9c6.21,2.62,9.43,8.1,10.91,11.54a13.51,13.51,0,0,1,2.11,0A21.5,21.5,0,0,1,87,65.17l2.1,3.08c-3.51,2-6.16,6.29-7.94,10.16a12.44,12.44,0,0,1,4.27,4.32l-3.48,9.53h.36l8.5-3.9.6-8.62L98,72l2.88,2.79L96.52,82l.85,10.15L87,97.53l2.28,3c14-6.45,38.54-14.28,46.71-2.06C124,122.76,106,116.41,106,116.41Zm-19,5a18.18,18.18,0,0,1,3,8.39l-31-.32a14.11,14.11,0,0,1,3.83-8.64ZM75,145.87c-7.63-2.44-12.26-6.05-14.45-10l28.33-.29C86.94,139.5,82.6,143.06,75,145.87Z"/></svg>