<svg id="Слой_1" data-name="Слой 1" xmlns="http://www.w3.org/2000/svg" viewBox="0 0 150 190"><defs><style>.cls-1{fill-rule:evenodd;}</style></defs><title>Монтажная область 33</title><path class="cls-1" d="M97.89,69.34l12.64,8.85-2.84,3.14L82.15,70.45,29.83,74.16,28.52,62.3l93-.39-.06,5.76ZM63,91.9c-10.1,0-6.83-14.11,2.58-14.11H81.18c10.79,0,13.24,14.11,3.9,14.11Zm32.46,19.27H72.14v-2.64c0-9-11.87-8.85-11.87,0v2.62H52.61c-10.09,0-6.82-14.76,2.59-14.76H91.51C102.31,96.41,104.75,111.17,95.41,111.17Zm-46.68,4.29H98c10.79,0,6.76,14.76-2.58,14.76H52.62C42.53,130.21,39.32,115.46,48.73,115.46Zm11.62,18.61h26c10.79,0,6.76,14.11-2.58,14.11H64.24C54.15,148.18,50.94,134.07,60.35,134.07Z"/></svg>