<svg id="Слой_1" data-name="Слой 1" xmlns="http://www.w3.org/2000/svg" viewBox="0 0 150 190"><defs><style>.cls-1{fill-rule:evenodd;}</style></defs><title>Монтажная область 44</title><path class="cls-1" d="M128.8,147.53H117.34c.54-4,2-18.48-5-19v0l-51.75.69c-.63,5.85-1.21,11.75-1.21,11.75l3.44,3.64-.33,3H50.7c.61-3.91,2.3-18-5.13-18-7.24,0-8.3,13.64-8.45,18H27.58l1.33-21.33-8-49.83c7-.63,9.86,2.52,11.49,8.78S38.58,109.49,39,111l53.83,0-1.43-8.84-50.06.41-2.53-9.33L89.88,93l-.63-3.93-51.73-.41-2.28-8.43L87.79,80l-.58-3.57c7-.63,9.81,2.54,11.49,8.78,1.78,6.64,6.61,25.84,6.61,25.84s6,0,12.67,0c7.45,0,10.46,4.73,9.65,11.57S125.68,141,125.68,141l3.44,3.64Zm-22.49-14.66c-2.28,4.65-2.76,11.72-2.86,14.68H93.91l.92-14.61Z"/></svg>