<svg id="Слой_1" data-name="Слой 1" xmlns="http://www.w3.org/2000/svg" viewBox="0 0 150 190"><defs><style>.cls-1{fill-rule:evenodd;}</style></defs><title>Монтажная область 5</title><path class="cls-1" d="M114.15,147.72c-26.81,0-31.1-30.59-15.51-42.62-.92-1.87-1.88-3.85-2.88-5.88L77.07,127.73l-42.52-.49-2.69-3.88L42,108.89a17.56,17.56,0,0,0-5.67-.9c-21.17,0-22.19,32,.36,32,6.27,0,10.63-3,13.08-7.11l8.44.33c-3,8.08-10.07,14.47-21.25,14.47-33.38,0-31.86-47.42-.53-47.42a25.05,25.05,0,0,1,10.17,2l7.75-11.08-3.27-6.11-9.45,1.32c-3.43-4.6,2.33-11.72,9-10.86,3,.39,16,1.55,16,1.55l.43,5.77L58,84.15l1.91,3.72L90,87.44c-2.51-5.16-4.79-9.83-6.28-12.91-3.24-6.67,6.29-8.07,10.1-4.23l-2,6.64s14.41,29.39,18.73,37.6c1,1.81,4.49,5.9,7.71,7.39l-2.57,4.75C109.21,124.73,106,120,103,114c-.26-.52-.54-1.08-.83-1.68-9,8.7-5.61,27.59,11.67,27.59,20.5,0,20.63-31.88-.36-31.88l-.57,0-2.76-7.58a29.08,29.08,0,0,1,3.42-.21C144.83,100.3,144.63,147.72,114.15,147.72ZM47.48,112.28,40.12,122l11.88-.1A16.27,16.27,0,0,0,47.48,112.28Zm10.62-14L52.25,106a24,24,0,0,1,7.48,15.89l11-.08Zm5.38-3.45,12.18,23.73,16-24.46Z"/></svg>