<svg id="Слой_1" data-name="Слой 1" xmlns="http://www.w3.org/2000/svg" viewBox="0 0 150 190"><defs><style>.cls-1{fill-rule:evenodd;}</style></defs><title>Монтажная область 3</title><path class="cls-1" d="M93.21,129.79l-.75-6.65c16-.1,15.06-20.24,5.59-25,9.88-13-.23-23.06-12.33-19.13C82.5,56.1,49.18,64.62,58.29,87.33c-19.64,4.6-17,33.21,6.73,32.54l-.47,6.67C32.68,127.74,31.7,88.48,51,83.09,43.93,57.24,84.18,49.92,90.3,71.86c12.85-3.07,24.23,13.4,15.8,25.37C115.39,103.2,114.81,129,93.21,129.79Zm-21-2.57L66,81.93l5.12-1.13,6.67,33.94,1.37-.51L84.6,95.75l4.53,1.49-3.82,22.47-5.45,1.13-.47,2.47,5.79,1.14.68,11.41-6,1.19.58,2.42,5.74,1.13.41,6.78-15.87-.81,1.51-14.76,5.54-.66-.49-2.66Z"/></svg>