<svg id="Слой_1" data-name="Слой 1" xmlns="http://www.w3.org/2000/svg" viewBox="0 0 150 190"><defs><style>.cls-1{fill:#7200e0;fill-rule:evenodd;}</style></defs><title>Монтажная область 15</title><path class="cls-1" d="M84.76,122.93c0-.1,0-.2,0-.31,0-19.16-13.53-29.86-28-31.45,10-28.48,53.87-17,49.84,11.52,14.73.11,29,15.7,19.73,32.82C114.13,158.11,82.08,143.84,84.76,122.93Zm6.46-41.51c-5-3.39-7.38-3-11.93-2.16-6.51,1.25-7.17,3.83-6.57,7.51.92,5.63,3,7.69,9.41,9.12,7.85,1.76,8.81,1.6,12.26-2.56C98.55,88.34,96.92,85.31,91.22,81.42Zm29.09,36.8c-4.82-3.85-7.63-2.36-11.3,3.07-3.19,4.72-2.83,7-2,11.35,1.22,6.18,3.68,6.79,7.16,6.2,5.35-.91,6.84-2.86,9-8.67C125.8,123.14,124.82,121.8,120.31,118.22Zm-1.52,15c-.69.73-2.48-.46-3.51-.2s-2.54,2.66-3.54,2.06.24-3.63-.23-4.86-2.52-1.43-2-3.24,2.76-1.93,3.29-2.76,1-3.88,2.37-4.41,1.73,2.47,2.5,3,2.81-.58,3.25.79-1.46,3.28-1.76,4.6S119.47,132.45,118.79,133.19ZM89.6,90.52c-.57.81.6,3-.85,3.42s-3.44-1.56-4.83-1.89-4.51.31-5.28-.42.5-2.6.23-3.68-2.78-2.69-2.14-3.74,3.82.27,5.12-.22,1.51-2.64,3.41-2.08,2,2.92,2.89,3.48,4.08,1,4.62,2.52S90.17,89.72,89.6,90.52ZM45.15,146.17C13.66,134.28,32,86.24,62.78,97.85,96.45,110.57,76.76,158.11,45.15,146.17ZM55.8,124.11c-5.15-6.64-9.11-6.51-14.31-3.8-4.51,2.36-4.43,4.73-4.08,9.27.51,6.51,3.34,8.64,7.57,10.31,6.51,2.56,8.58,1.69,12-2.33C61.18,132.69,60.6,130.3,55.8,124.11Zm-4.49,13.45c-.93.24-2.88-2-4.14-2.41s-3.42.86-4.52-.34.84-3.21.46-4.66-2.78-2.92-1.88-4.27,3.58,0,4.33-.47,1.75-3,3.49-2.59,1.69,3.39,2.52,4.37,3.43,1.25,3.75,2.8-2.24,2.11-2.81,3.15S52.24,137.31,51.31,137.56Z"/></svg>