<svg id="Слой_1" data-name="Слой 1" xmlns="http://www.w3.org/2000/svg" viewBox="0 0 150 190"><defs><style>.cls-1{fill-rule:evenodd;}</style></defs><title>Монтажная область 14</title><path class="cls-1" d="M109.21,94.79l16.69-5.53S112.62,110.34,100,128.68C86.75,148.07,68.22,153.46,52.77,145,17.51,125.79,38.92,69.1,88.85,51.88L85.77,67.05l32.11-23.14L101.05,80.22l18.8-9ZM98.9,98.34l-7.42.85L93,78.26,74.28,87l.91-10.32C46.13,82,30.59,119.35,52.32,137.28,70.29,152.11,102.88,130,98.9,98.34ZM76.08,134.26l-7.63.29-4.71,3.26a30.93,30.93,0,0,1-6.25-2.63c-11-6-9.37-15.58-10.86-25.19L57.81,94.32l15.62-2.87c15.35,4.4,26,21.83,13.39,33.21ZM57.73,102.43l-6.22,8.73.35,6c4.32.48,6.59-3.5,7.69-7.13C61.93,102.09,57.73,102.43,57.73,102.43Zm15.88,22.39a4.6,4.6,0,0,0-.1-7.56,4.34,4.34,0,0,0-6.78,2.28C66.24,121.4,71.81,125.82,73.61,124.82ZM71.24,98c-3.63.08-8.47,8.22-5,11.75.62.63,1.25,1.21,1.89,1.77,4-1.09,8.7.43,11.65,5.89a13.22,13.22,0,0,0,6.55-.59C89.15,109.78,81.27,97.81,71.24,98Z"/></svg>