<svg id="Слой_1" data-name="Слой 1" xmlns="http://www.w3.org/2000/svg" viewBox="0 0 150 190"><defs><style>.cls-1{fill-rule:evenodd;}</style></defs><title>Монтажная область 11</title><path class="cls-1" d="M84.93,145.3c-4.18,4.08-17.3,4-20-.34l-44.33,3.79,5.9-57.27,6.08,0L35.39,86S63.52,78.12,74,89.29c10.48-11.17,36.72-3.06,36.72-3.06l3.71,5H121L129.44,149ZM32.41,102.61l-3.34,34.8,6.52-9.52,1.53-36.55Zm9.77-12.2-1.29,34.77s21.7-5.23,30.52,3.07l.34-33.07C62.7,84.44,42.18,90.41,42.18,90.41Zm62.42.87S86.15,84.21,77.1,95l-.22,33.55c10.57-9.46,29.43-4.06,29.43-4.06Zm-24.87,41.8c.11,3.95-10.36,3.49-10.36.11-3-3.68-19.46-4.73-29.37-2.43l-5.62,8.58,31.48-2.54c3.09,6,15.08,5.3,17,.46l31,2.73L109,131.81C101,129.37,88.42,126.06,79.73,133.08Zm34.66-33.87-4.7-6.1L112,126.64l6.68,10.08Z"/></svg>