<svg id="Слой_1" data-name="Слой 1" xmlns="http://www.w3.org/2000/svg" viewBox="0 0 150 190"><defs><style>.cls-1{fill-rule:evenodd;}</style></defs><title>Монтажная область 9</title><path class="cls-1" d="M94.71,148.73c-58.93,0-54.6-79.63-3.6-79.63C143.09,69.1,144.4,148.73,94.71,148.73Zm-4.86-32.82c7.44,0,7.48-11.64-.13-11.64S81.71,115.91,89.85,115.91Zm21.31-15.15c7.44,0,7.49-11.64-.13-11.64S103,100.76,111.16,100.76ZM93.86,79.37c-9.56,0-10,14.56.17,14.56C103.33,93.93,103.4,79.37,93.86,79.37ZM55.12,137.16a81.92,81.92,0,0,1-4.65,9.44l-15.89.63S22.92,130,22.92,116.08c0-16.31,6.29-25.36,9.39-32.2H50.38c.45.92.95,1.88,1.49,2.89C43,102.28,43.9,123.12,55.12,137.16ZM48.88,71a47.81,47.81,0,0,0-.43,6.47s0,.07,0,.1L34,77.8v-.11a57.56,57.56,0,0,0-.5-7.5ZM32.61,64.37A73.07,73.07,0,0,1,31.54,52.3c-.05-14.7,19.63-14.78,19.66.23a59.71,59.71,0,0,1-1.13,11.6Z"/></svg>