<svg id="Слой_1" data-name="Слой 1" xmlns="http://www.w3.org/2000/svg" viewBox="0 0 150 190"><defs><style>.cls-1{fill-rule:evenodd;}</style></defs><title>Монтажная область 41</title><path class="cls-1" d="M108.78,146.68,42.1,148c-.48-5.21-2.27-24.62-2.79-31.18-.41-5.17-8.85-12.28-1.78-22,3.71-5.08,15.45-7.62,24.24-7.62h24c10.62,0,20.56-1.07,26.16,7.45,7.44,11.32-.51,17.73-1.09,22.5C110.15,123,109.15,140,108.78,146.68ZM83.43,99.58c-5.77-8.39-34-8.76-40.19-.4-5.41,7.28,2,11.82,2.32,16.19.47,6.43,2.31,26.68,2.31,26.68l33.14.11s1.17-20.94,1.56-25.23C82.94,112.88,89.78,108.83,83.43,99.58Zm-7.82,18.6c-4.88,0-4.66-7-.07-7S80.07,118.18,75.61,118.18Zm-2.48-12.35c-4.89,0-4.67-7-.08-7S77.58,105.83,73.13,105.83ZM63.51,117c-7,0-6.67-9.89-.11-9.89S69.89,117,63.51,117ZM92.69,77.07a9.84,9.84,0,0,0,2.4-7.65c-.73-4.65-3.88-4.19-5.54-9.45-1.3-4.17,2.32-10.75,6.22-13.62l3.31,3.12c-2.36,1.94-2.33,4.79-1.57,7.22,1.34,4.29,4.71,4.16,5.5,9.6.65,4.51-2.57,11.23-7,13.73ZM71,75.44c2.22-2.18,3.81-5.88,3.2-8.46-1.08-4.64-6.71-5.71-8-11.08-1.14-4.9,3.13-11.55,7-14.42l3.31,3.12a7.84,7.84,0,0,0-2.38,8c1,4.38,6.66,5.78,7.93,11.22,1,4.44-3.37,12.05-7.78,14.55ZM49,77.07a9.84,9.84,0,0,0,2.4-7.65c-.73-4.65-3.89-4.19-5.54-9.45-1.31-4.17,2.32-10.75,6.21-13.62l3.32,3.12C53,51.41,53,54.26,53.81,56.69c1.34,4.29,4.71,4.16,5.5,9.6.65,4.51-2.57,11.23-7,13.73Z"/></svg>