<svg id="Слой_1" data-name="Слой 1" xmlns="http://www.w3.org/2000/svg" viewBox="0 0 150 190"><defs><style>.cls-1{fill-rule:evenodd;}</style></defs><title>Монтажная область 38</title><path class="cls-1" d="M105.65,131.61l-63.78.29s-.48-54.74-.44-56.69c.17-8.09,3.38-11.94,10.3-11.94,5.59,0,35-.16,42.11,0,8.16.17,12,4.82,12,12.32C105.79,77.58,105.65,131.61,105.65,131.61Zm-50.51-5c8.75,0,8.52-14-.64-14C45.53,112.66,44.77,126.66,55.14,126.66ZM61,68.76l1,5.86,22.69-.31.58-5.55ZM99.29,80l-51.38-.69s.09,13.23.25,19.95c.11,4.7.71,8.73,7.08,8.73s30.75-.26,37.92-.26c5.09,0,6-3.13,6.19-7.29C99.64,93.43,99.29,80,99.29,80Zm-4.23,34.43c-6.74,0-7.31,10.5.47,10.5C102.09,124.91,101.92,114.41,95.06,114.41ZM56.72,142.69c0,6.88-13.91,6.88-13.91,0v-7.54l13.91.14Zm48.09,0c0,6.88-13.91,6.88-13.91,0v-7.05l13.91.15Z"/></svg>