<svg id="Слой_1" data-name="Слой 1" xmlns="http://www.w3.org/2000/svg" xmlns:xlink="http://www.w3.org/1999/xlink" viewBox="0 0 150 190"><defs><style>.cls-1{fill-rule:evenodd;fill:url(#linear-gradient);}</style><linearGradient id="linear-gradient" x1="75" y1="50.79" x2="75" y2="147.72" gradientUnits="userSpaceOnUse"><stop offset="0" stop-color="#00c832"/><stop offset="1"/></linearGradient></defs><title>Монтажная область 28</title><path class="cls-1" d="M90.06,120.22l-.15-14.48,4.41.32s-.1-35.3-.1-36.64c0-9.64,13.74-9.23,13.81.63,0,1.26,0,28.47,0,33.39C108,116.61,102.08,120.22,90.06,120.22Zm-25.35,27.5s0-9.94-.08-23.06l5.79-1.41-.8-3c-24.84,0-27.31-3.09-27.31-19.11,0-4.92-.35-19.58-.35-20.84,0-10.5,13.66-10.36,13.66-.63,0,1.34-.09,26.72-.09,26.72l9-.27c-.07-20.75-.15-41.94-.16-44.22-.11-14.9,20.63-15,20.74,1,0,5.19,0,84.59,0,84.59Z"/></svg>