<svg id="Слой_1" data-name="Слой 1" xmlns="http://www.w3.org/2000/svg" viewBox="0 0 150 190"><defs><style>.cls-1{fill-rule:evenodd;}</style></defs><title>Монтажная область 14</title><path class="cls-1" d="M98.24,87.31,109.69,92,94.5,112.45l-7.72.09c3.87-5.47,3.55-13.6.93-19.47L76.87,98,74.54,84c-11.3,3.74-14.28,19.85-8.31,28.79l-7.34.08C24.68,92.59,50.1,53.94,71.63,52.4L70.25,65.19,98.48,49,92.37,70.37l17.78,1ZM43.86,116.13l31,11.08,30.37-11.31,4.39,9-63.72,25.6L40.8,139.91l19-7.07-18.25-7.19ZM110,139.78l-4.72,11L82,141.6l14.12-6.8Z"/></svg>