<svg id="Слой_1" data-name="Слой 1" xmlns="http://www.w3.org/2000/svg" viewBox="0 0 150 190"><defs><style>.cls-1{fill-rule:evenodd;}</style></defs><title>Монтажная область 26</title><path class="cls-1" d="M86.63,78.06l-3.22-.13L78.89,61.45c-7.52,1.65-10.85,8.92-10,15.88l-2.33-.09C55.14,65.32,55.23,47.29,86.33,39.59L82.79,51.54S97,66.62,86.63,78.06ZM66.68,87.88l5.86,2.27c1-3.65,1.46-8.55.71-11.26l4.94-.73c2,4.72,2,10.56,1.18,14.64L88,96.16,90,102.27c-3.7,1.44-4.48,7.25-4.48,10.89,0,5.75,6.4,11.48,4.33,17.12l-3.37,1.83L87.85,147,63,146.67s2.38-39,2.57-41.52-.46-10-2.94-12.63Z"/></svg>