<svg id="Слой_1" data-name="Слой 1" xmlns="http://www.w3.org/2000/svg" viewBox="0 0 150 190"><defs><style>.cls-1{fill-rule:evenodd;}</style></defs><title>Монтажная область 10</title><path class="cls-1" d="M127.06,138.36c.7-8.67-4.65-18.17-16-18.17-12.15,0-17.73,11.26-15.34,20.45l-42.29-.27c1.77-9.14-3.49-20.18-15.75-20.18-11.38,0-17,9.87-15.69,18.68L11.45,135.8l-.24-24.21s14.22-1.89,21.94-6.69c8-5,12.77-13.88,34-13.88,15.44,0,28.25,10.86,36,20,17.3.86,35.56,7.67,35.56,7.67l-3.24,18.69ZM66.22,98.24a32.68,32.68,0,0,0-18.91,6.2l.77,4.8,44,1.34C86.15,103.74,77.48,98.24,66.22,98.24ZM37.7,124.18c15.68,0,16.08,24.15,1.09,24.15C21,148.33,22.32,124.18,37.7,124.18Zm.5,17.11c6.24,0,6.08-10.06-.45-10.06S30.79,141.29,38.2,141.29Zm72.88-17.11c15.68,0,16.07,24.15,1.09,24.15C94.39,148.33,95.7,124.18,111.08,124.18Zm.5,17.11c6.24,0,6.08-10.06-.46-10.06S104.17,141.29,111.58,141.29Z"/></svg>