<svg id="Слой_1" data-name="Слой 1" xmlns="http://www.w3.org/2000/svg" viewBox="0 0 150 190"><defs><style>.cls-1{fill-rule:evenodd;}</style></defs><title>Монтажная область 22</title><path class="cls-1" d="M82.93,97.59l-.69,2.88,9.5,5.2c-2.17,6.37-4.94,13.57-7.85,20.38l-9.11-1.13,0,3.06,6.32,4.52c-5,11-10,19.84-12.6,20.39-2.8-1.54-6.34-19.68-8.5-37.18l9.56-1.95.56-2.5-10.92-2.65c-1-9.92-1.46-18.82-.91-23.28C67.62,78,89.31,81.43,96,90a60.51,60.51,0,0,1-2.07,8.92ZM86.51,68,85,75.27l-10.75.65L68,46.17l8.25-1L79.7,61.54,84,37.11l8.53,1.53-3,14.6L95.39,58Z"/></svg>