<svg id="Слой_1" data-name="Слой 1" xmlns="http://www.w3.org/2000/svg" viewBox="0 0 150 190"><defs><style>.cls-1{fill-rule:evenodd;}</style></defs><title>Монтажная область 11</title><path class="cls-1" d="M114.61,66.72,114.32,73s-14.27,1.84-21-3.53c-.85.57-1.65,1.14-2.39,1.74l6.35,6.46-2.2,2.64-7.92-5.46a23.7,23.7,0,0,0-2.69,3.82L93,84.78,91.4,88.39l-9.26-4a31.73,31.73,0,0,0-.93,5l10.72,5.43-1.3,3.5L81,95.7c0,1.84.12,3.69.23,5.54l11.25,4.83-.2,4.44L81.6,108.15a54.78,54.78,0,0,1-.19,8.13l11,6.8-.93,4.33-11.45-5a21,21,0,0,1-4.54,7.46l8.42,12L80.07,145l-10-10.81a42.39,42.39,0,0,1-7.41,3.53,5.94,5.94,0,0,1-.93.26L57,152.15,51.62,151,56,137.54l-14.85.9-.11-5.53,15.56-1.15a5.55,5.55,0,0,1,1.79-1.7q1.28-.8,2.37-1.62l-9.87-4L52.53,120l12.9,3.68a18.81,18.81,0,0,0,2.75-5.81L56,114.08l.21-4,12.9,1.29c.06-1.92,0-3.88-.14-5.87l-10.7-2.19.2-4.2,10-.13c-.14-2.21-.23-4.43-.15-6.65L59.75,90l.73-4.11,8.63.31a24.49,24.49,0,0,1,3-7.56l-8.43-6.07,2-3.64,10.28,4.82A36.46,36.46,0,0,1,81.63,69L77,59.42l4-1.77,5.59,8.43c1.09-.57,2.26-1.14,3.48-1.7-1.8-7.85,4.63-19.61,4.63-19.61l4.8,3s-5.37,8.47-4.25,14.51c4.07-1.2,4.84,2.38,2.79,4.31C103.48,70.17,114.61,66.72,114.61,66.72Z"/></svg>