<svg id="Слой_1" data-name="Слой 1" xmlns="http://www.w3.org/2000/svg" viewBox="0 0 150 190"><defs><style>.cls-1{fill-rule:evenodd;}</style></defs><title>Монтажная область 46</title><path class="cls-1" d="M92.43,146.77c-.4-7.59-12-7.92-12.3.19l-42.34.65-.09-25.68c11.93-.11,12-18.71-.07-19L37.57,87.3,79.81,66.76c15.36,2.82,29,14.54,32.62,23,0,0-1.88,46.87-2.44,56.74Zm-49-54,.07,3.84c13.4,4.83,13.47,25.74.59,30.86l.26,13.42H74.64c4.57-9.21,18.66-8.88,23.26,0h4.25l2.75-48.12Zm39.84,29.89c-14.37,0-13.72-20.54-.23-20.54S96.41,122.64,83.28,122.64Zm-18.6,10.08c-9.24,0-8.83-13.21-.14-13.21S73.13,132.72,64.68,132.72Z"/></svg>