<svg id="Слой_1" data-name="Слой 1" xmlns="http://www.w3.org/2000/svg" viewBox="0 0 150 190"><defs><style>.cls-1{fill-rule:evenodd;}</style></defs><title>Монтажная область 1</title><path class="cls-1" d="M90,146.23V121l-9,.3-.19-40.6-18.44.2L62.24,99.6l-10.1.42.08,22.24-9.08.3.63,23.49L32.51,146V87.39L40.44,87,40,67.4,57.4,62.53l.18-13.24,30.51-7.37.5,32.66,11.52-.07,0,13.36,17.14,5.45.21,53ZM55.43,73.48l-6.21.29L50,82.33l5.46-.58ZM80.25,54.13l-6.21.3L74.79,63l5.46-.58Zm18,49.74-6.81.1.75,8.56,6.06-.19Zm12.36-.19-6.19.1.23,8.36,6-.19Zm.06,17.08-6.21.3.75,8.55,5.46-.58Zm-56.09,8.09.37,8.36-6,0,.13-8.45Zm11.09.26,0,8.15-6.27,0,.21-8.26Zm9.24-26.37,0,8.91-6.28-.12.14-9ZM69,87.94l6,0,0,8.23-6.09.46ZM82.07,146.2l-9.62,0-.32-11.46,10-.08Z"/></svg>