<svg id="Слой_1" data-name="Слой 1" xmlns="http://www.w3.org/2000/svg" viewBox="0 0 150 190"><defs><style>.cls-1{fill-rule:evenodd;}</style></defs><title>Монтажная область 42</title><path class="cls-1" d="M76.53,149.29c-61.53,0-58.74-87.92-1-87.92C133.09,61.37,132.73,149.29,76.53,149.29ZM75.47,67.64c-49.53,0-51.91,75.39.84,75.39C124.5,143,124.81,67.64,75.47,67.64Zm31.69,42.15-10.72,2-1-7.7h11.71Zm-35.47,4.68L57.54,99.38l3-3.64,14.37,7.83L99.78,84l2.12,2.82L78.28,113.71Zm3.49-39.4,6.49-.52.48,12-6.63-.32Zm-7.76,0h4.1l1,11.53-6.08-1ZM43,106.06l11.54-2,1,7.83H44Zm36.84,30.52-5.82,1.62-2-11.4,7.81-.63Z"/></svg>