<svg id="Слой_1" data-name="Слой 1" xmlns="http://www.w3.org/2000/svg" viewBox="0 0 150 190"><defs><style>.cls-1{fill-rule:evenodd;}</style></defs><title>Монтажная область 8</title><path class="cls-1" d="M94.55,146.88c-14.47,0-33.23-.1-45.34-.1-21.76,0-24.19-29.16-6.68-35.49-.1-14.65,9.35-29.42,28.53-29.42,14,0,23.1,7.8,27,17.69C126.44,102.48,126.79,146.88,94.55,146.88Zm-.87-40C92,97.09,84.42,88.54,71.38,88.54c-17.16,0-23.66,15.62-20.95,28.38-17.58,0-15.89,23.38-.51,23.38,10.82,0,32.62-.37,45.64-.37C118.3,139.93,118.06,104.64,93.68,106.88Z"/></svg>