<svg id="Слой_1" data-name="Слой 1" xmlns="http://www.w3.org/2000/svg" viewBox="0 0 150 190"><defs><style>.cls-1{fill-rule:evenodd;}</style></defs><title>Монтажная область 13</title><path class="cls-1" d="M84.48,94.78l6.34-3,3.11-10.12,3.32.66L96,94l-9.32,5.66a154.37,154.37,0,0,0-11.47,14.72,164.49,164.49,0,0,0-10.59-14.09L53.73,92.59l-.16-10.43L56.43,82l2.1,8,7.66,5.17L69,85.39c-7.74-18.5-21.06-37-32.41-42.77l1.86-3.53c13.25,6.11,27.08,25,35,43l4.37,0C84.32,65.47,96,46.75,111.09,37.89l2.3,3.1C102.29,47.4,89.2,67,82.3,86ZM47.26,113.59l-9.57-2.36.51-3.15,7.91,1,11.23-9.13c13.52,11.67,22.16,27.21,26.8,40.89a22.58,22.58,0,0,1-8.27,8.65c-9.4-4.9-13-15.31-13.78-26.17l-5.71-1.17,1.88,21.18L49.2,153.53l-2.29-1.72,6.21-9.44-2.06-24.94,10.87.14c0-1.74.1-3.48.23-5.18L56.21,107Zm46.25-13.54,9.45,8.08,7.72-.71.5,2.33-8.55,2.7L93.5,107l-4.92,4.65c.15,1.77.24,3.57.28,5.38l11.61-.67-2.69,25.81L103,152l-2.61,1.25-7.56-10.72,2-20.42-6.08.8a49.06,49.06,0,0,1-2.25,12.44,108.76,108.76,0,0,0-8.93-17.33C81.88,111.32,87,103.8,93.51,100.05Z"/></svg>