<svg id="Слой_1" data-name="Слой 1" xmlns="http://www.w3.org/2000/svg" viewBox="0 0 150 190"><defs><style>.cls-1{fill-rule:evenodd;}</style></defs><title>Монтажная область 11</title><path class="cls-1" d="M98.29,131.38c3.64,12.4-3,18.2-3,18.2l-6.06-18.84A36.53,36.53,0,0,1,76.07,133a40.81,40.81,0,0,1-15.76-2.92l-5.85,20s-6.61-9-3.51-18.88c.45-1.41,1-3.34,1.73-5.61a26.62,26.62,0,0,1-9.94-15.92l6.1-2.95a23.54,23.54,0,0,0,6.33,10.54c3-10,6.46-21.94,8.14-27.68-8.48-8.12-5.68-24.85,7.22-28.05l-2.72-11.1,10.92-.81.44,11.81c13.52,3,15.65,21,6.71,28.89,1.34,4.37,3.91,12.8,6.47,21.25L85,117.35,77.42,93.94a18,18,0,0,1-2,.1A21.65,21.65,0,0,1,71,93.59l-8.35,28.58a33.43,33.43,0,0,0,13.16,2.48c14,0,22.68-8.2,25.28-18.64l6.2,2.8a30,30,0,0,1-10.44,17.62ZM75.12,84.71c9.17,0,9.23-14.35-.16-14.35S65.07,84.71,75.12,84.71Z"/></svg>