<svg id="Слой_1" data-name="Слой 1" xmlns="http://www.w3.org/2000/svg" viewBox="0 0 150 190"><defs><style>.cls-1{fill-rule:evenodd;}</style></defs><title>Монтажная область 31</title><path class="cls-1" d="M104.32,104.69c1.55-2.57,1.56-5.92,1.56-9.23C105.88,79.88,89,83,89,83s.38-12.88-13.43-12.88c-12.75,0-14.18,12.71-14.18,12.71s-17-1.58-17,14.08a14.66,14.66,0,0,0,1.71,7l-5.36,2.46A20.32,20.32,0,0,1,38,96.06c0-9.64,6.7-19.71,19-19.71,2.59-8.11,9.7-13.25,18.62-13.25,10.51,0,16.19,6.52,18.24,13.24,10.93,0,18.56,9.19,18.56,19.35a22.26,22.26,0,0,1-3.59,12.48ZM68.1,121.52c.08-18.19,8-16.25,9-28.17l3.1-.45c5.9,9.07,7.54,17.72,3.22,29.07,5.76-1.92,6.85-11.08,21.91-10l1.36.53s-4.14,18.69-26.14,22.27l-2.35,13.3L66,146l3.7-11c-17.85-2.51-26.27-23.3-26.27-23.3l2.32-2.3C53,115.23,60.59,111.15,68.1,121.52Z"/></svg>