<svg id="Слой_1" data-name="Слой 1" xmlns="http://www.w3.org/2000/svg" viewBox="0 0 150 190"><defs><style>.cls-1{fill-rule:evenodd;}</style></defs><title>Монтажная область 23</title><path class="cls-1" d="M100.55,109.9l-5-6.56,5.83-9.85L97.48,76.08l11.42,3L114,69C128.25,86.21,113.55,104.25,100.55,109.9Zm16.8,5.65c12.73,8.77,10.21,19.86,10.21,19.86L115.15,123.6l-9.72.81h0c-1.15,1.44-2.33,2.78-3.55,4l10.49,3.22c9.76,5.82,5.27,21.46,5.27,21.46l-8.31-13.92-14.64-4.7c-11.67,7.89-25.38,8.37-38.09,0L40.18,139l-7.5,14.72s-5.3-16.45,4.46-22.27l12.1-2.9q-1.52-1.47-3-3.13L34,124.4l-12.2,11.4S19,125.66,32,116.34l16.85,1.12c3.48-5.88,8.36-14,10.35-17,4.69,4.06,23.12,4.06,29.06.31,1.51,1.69,7.74,10.13,12.27,16.45ZM46.46,109.9c-13-5.65-27-23.69-12.83-40.89L38.76,79.1l11.42-3L45.59,93.49l5.83,9.85Z"/></svg>