<svg id="Слой_1" data-name="Слой 1" xmlns="http://www.w3.org/2000/svg" viewBox="0 0 150 190"><defs><style>.cls-1{fill-rule:evenodd;}</style></defs><title>Монтажная область 24</title><path class="cls-1" d="M94.72,84.13c-.22,3.64-.64,7.93-1.21,13,3.72,2.69,4,5.28-.82,7-.12,1-.24,2-.37,3.07s-.26,2.07-.39,3.07c3.58,2.76,3,5.65-1,6.89a121.55,121.55,0,0,1-3.35,15.14c2.7,2.95,2,5.57-2.16,6-3.53,8-7.82,10.48-12.82,9.92-5.66-.63-10.07-5-11.38-16.83-3.67-2.11-3.5-4.8-.39-6.49q-.09-4.85.38-11c-3.77-2.55-3.2-5.83.66-6.87.12-1,.24-2,.37-3,.6-4.64,1.14-8.77,1.67-12.45-3.3-2.5-2.71-5.31,1-6.47.41-2.44.81-4.63,1.24-6.59C63,76.17,64.13,73,67.9,72c2.79-7.91,6.77-9.36,14.71-8.36,8.64,1.09,12,3.57,12.27,13.75C98.37,79.76,98.28,82.81,94.72,84.13ZM81,126.1c3.69.46,4.42-5.27.64-5.74A2.89,2.89,0,1,0,81,126.1Zm-9.92,8.42c3.69.45,4.42-5.28.64-5.74A2.89,2.89,0,1,0,71.06,134.52Zm1.08-32.78c3.69.46,4.42-5.27.64-5.74A2.89,2.89,0,1,0,72.14,101.74Zm5.15-26.9a2.89,2.89,0,1,0-.64,5.74C80.34,81,81.06,75.31,77.29,74.84Zm3.29,36c3.69.45,4.42-5.28.64-5.74A2.89,2.89,0,1,0,80.58,110.82ZM85,89.44a2.89,2.89,0,1,0-.64,5.74C88,95.63,88.73,89.9,85,89.44Zm4.36-32.73-5.36,2-5.16-.37.8-8c-10-15.1-22.24-7.14-23.68-3.85,7.08,0,13.62,5.18,13.67,10.84,0,3.45-1.69,7.62-7.64,7.62-3.58,0-7.76-2.1-10.74-7.62l4.61-2C60.27,63,68,59.26,62,54.11c-6.49-5.65-16.66-2.18-18.49,5.37l-5.13-.26a17,17,0,0,1,4.53-8.14,16.47,16.47,0,0,1,7.25-4.16c1-7.56,17-17.88,30.3-4.64l.49-6,8.59.46L86.09,50.33A56.52,56.52,0,0,1,89.31,56.71ZM55.76,71.18a7,7,0,0,1-6.7,7c-4.62,0-7.83-4-8.78-7.11a11.28,11.28,0,0,0-2.44,9.47l-4.93.83C31.15,70,38.72,62.85,46,62.85,48.64,62.85,55.76,64.78,55.76,71.18ZM49,73.2a1.59,1.59,0,0,0,1.69-1.71c0-2.28-3-4.27-6.23-3.18C44.77,70.36,46.56,73.1,49,73.2Z"/></svg>