<svg id="Слой_1" data-name="Слой 1" xmlns="http://www.w3.org/2000/svg" viewBox="0 0 150 190"><defs><style>.cls-1{fill-rule:evenodd;}</style></defs><title>Монтажная область 39</title><path class="cls-1" d="M31.46,104.05,50.29,79.79l51.09.81,18.82,22.64-44.9,47Zm22-18.21-13.89,18,29.72,31.83L58.37,106.87l-9.92-1.23.25-3.26,9.56-.76L62.91,85.8ZM86,85.7l-17.16.07-4.55,15.56,25.44,0Zm3.27,21.61H64.69l11,32ZM54.12,70.09l.72-16.87,8,1.26-5,16.25Zm-17.72-19,8.27-2.37,4.66,21.8-3.78,1.79Zm3.53,26.05L26.75,70.35l4.75-6.63L41.63,74Z"/></svg>