<svg id="Слой_1" data-name="Слой 1" xmlns="http://www.w3.org/2000/svg" viewBox="0 0 150 190"><defs><style>.cls-1{fill-rule:evenodd;}</style></defs><title>Монтажная область 9</title><path class="cls-1" d="M117.65,83.56l-21,3.11c9.22,17,2.54,43.54-28.55,43.54C35.22,130.21,30,99.3,40.47,80.9L51.89,92.16c-1.4,16,8.45,24.8,23.91,23.32V111.3c-13.87-.74-18-7.22-18.35-17.16l19.83-3.69A49.06,49.06,0,0,1,75.4,76.58c0-20.74,22.19-20.77,27-9.33,2.42,5.74,6.3,9.13,15.26,9.13ZM63,133.74l5.47,1.64.11,3.8,10.06,5.14-11.74,5.77-14.59-1.45L62,140.8Zm29.6-4.87,4.24,5.55,12.8.84-5.16,8-14.07,3.2,1.5-6.76L87.61,132Z"/></svg>