<svg id="Слой_1" data-name="Слой 1" xmlns="http://www.w3.org/2000/svg" viewBox="0 0 150 190"><defs><style>.cls-1{fill-rule:evenodd;}</style></defs><title>Монтажная область 34</title><path class="cls-1" d="M62.08,92.18c0-11.67,7.94-17.11,16.57-17.11S95,80.85,95,91.88l-4.39.54c0-5.29-3.75-11.35-12-11.35-5.36,0-10.57,2.54-10.57,11.11,0,5.25,5.1,10.37,14.78,10.37,4.6,8.6-3,22.52-11.19,22.14s-10-6.43-8.55-13.69c0,0,11,3.91,11-3.9C69.35,105.88,62.08,100.19,62.08,92.18ZM92.91,133.1C90,154,59.25,153.56,57.36,133l5.74-1.25c1.57,14.34,21.16,13.89,23.47.68,3.5-20,16.08-28.92,16.08-41.7C102.65,74.13,91.88,67,80.35,67c-14.62,0-25.87,9.42-25.87,27.44l-5.74-.5C48.74,70.07,64.64,61,80.35,61c14.54,0,28.81,10.12,28.81,30.29C109.16,106,95.14,116.85,92.91,133.1Z"/></svg>