<svg id="Слой_1" data-name="Слой 1" xmlns="http://www.w3.org/2000/svg" viewBox="0 0 150 190"><defs><style>.cls-1{fill-rule:evenodd;}</style></defs><title>Монтажная область 31</title><path class="cls-1" d="M129.83,114c-35.78,37-93.26,24.48-107.49,5.4a67.08,67.08,0,0,1,8.79-15.74L19.37,92.85l5.47-5.8L36.09,97.89A53.58,53.58,0,0,1,47.48,89L38.12,73.19l7.06-4,9.16,16.5a50.42,50.42,0,0,1,15.15-3.4l.19-18.18h7.89L77,82.33A59,59,0,0,1,93.36,86L102,68.12l6.89,3-8,18.14a80.15,80.15,0,0,1,12.63,8.22L124,83.92l6.67,5.36-11.06,13.53A107.32,107.32,0,0,1,129.83,114ZM44.92,100.46a58.81,58.81,0,0,0-10.46,11.61l2.28,9.42a65.73,65.73,0,0,0,17.12,7.7C45.66,122.1,42.78,110.74,44.92,100.46Zm44.2-7.94c-10.73-3.58-21.43-3.54-31.19.21-12.12,12.15-7.39,38.08,16.32,38.08C96,130.81,101.14,104.58,89.12,92.52Zm12.5,5.84c2.57,9.75.6,20.85-5.84,28.49a101.61,101.61,0,0,0,24.16-13.36A85.76,85.76,0,0,0,101.62,98.36ZM74,122.71c-19.17,0-18.3-27.39-.31-27.39S91.46,122.71,74,122.71Z"/></svg>