<svg id="Слой_1" data-name="Слой 1" xmlns="http://www.w3.org/2000/svg" viewBox="0 0 150 190"><defs><style>.cls-1{fill-rule:evenodd;}</style></defs><title>Монтажная область 41</title><path class="cls-1" d="M131.36,91.88l-3.79-4.36-3.78,4.77a91.89,91.89,0,0,0-15.5,1.26c8.09,2.74,18.81,11.59,22.9,22.09A41.73,41.73,0,0,0,120,110l-1.62-5.48-5.43,3.89a25.85,25.85,0,0,0-5.18-.19l-7.71-7.1,2.08-6.26c-4.38,1-8.4,2.19-12.16,3.45,8.16,3.47,17.29,18.32,18.15,30.51A41.39,41.39,0,0,0,90.87,115.7l.53-5.16-7.65,1-2.88-3.79,3-7.32A161.77,161.77,0,0,0,67.54,108c10.4-.8,23.2,19,25.24,35.92a71.53,71.53,0,0,0-10.94-10.37l.72-7.51-8.09,2.54a56,56,0,0,0-10.12-4.83l-3.46-6.06,4.51-8.56c-4.81,2.55-10,5.34-15.65,7.89,10.73,3,21.75,21.32,23,38.63a69.26,69.26,0,0,0-19.91-17.42l1.47-6.14-10.51,1.2-4.83-7.09,4.41-6.5a79.93,79.93,0,0,1-26.58,5.73L16,117.2a86.6,86.6,0,0,0,20.36-3.12l-7.82-3.52-.5-12a63.19,63.19,0,0,0,9.35-32,55.13,55.13,0,0,1,7.25,17.64l-6.56,4.48L46,93.51c.48,8-1,15.2-4.59,19.07a124.67,124.67,0,0,0,15.11-6.19l-6.83-3.48.63-6.78A70.46,70.46,0,0,0,61.08,63.52,52.09,52.09,0,0,1,67.17,86L60.7,91.22l6,3.45a24.63,24.63,0,0,1-2.44,7.74c4.69-2.45,9.62-4.83,15.08-7l-7.63-3.09.83-8.87s8.07-7.33,9-22.74a43.18,43.18,0,0,1,4.82,13l-4.23,4.64,5.08,3.82c0,4.74-1,8.87-3.12,11.46,3.89-1.42,8.06-2.74,12.61-3.93L91.43,85.9l.49-7.12s9-6.55,13.12-21.25A45.78,45.78,0,0,1,107,74.79l-5.89,3.29,4.41,4.39a15.69,15.69,0,0,1-3.19,5.82l1.26-.29c11.21-2.4,8.33-8,22.36-8.7l13.67,9A15.49,15.49,0,0,1,131.36,91.88Z"/></svg>