<svg id="Слой_1" data-name="Слой 1" xmlns="http://www.w3.org/2000/svg" viewBox="0 0 150 190"><defs><style>.cls-1{fill-rule:evenodd;}</style></defs><title>Монтажная область 34</title><path class="cls-1" d="M103.05,96.25,90.21,87.11l-2.88.54,14,14.32a28.46,28.46,0,0,0,16.64-.91c4.69,4.48,7.55,9.4,6.77,14.44-25.27,9.79-38-10.58-38-10.58L75,86.46,63.3,104.92s-12.77,20.37-38,10.58c-.78-5,2.08-10,6.77-14.44a28.46,28.46,0,0,0,16.64.91l14-14.32-2.88-.54L47,96.25S28.71,101.82,17.76,77c8.86-12.09,36.91-2.25,50.65,4.87L75,85l6.59-3.13c13.74-7.12,41.79-17,50.65-4.87C121.29,101.82,103.05,96.25,103.05,96.25ZM85.8,74.38l-.91,2-10,3.94L65.07,76l-.72-2a11.81,11.81,0,0,1,4.09-4c-1.47-3.71-4-7.89-8-10.33L63,56.76c6.22,2.62,9.43,8.1,10.91,11.54a14.86,14.86,0,0,1,2.11,0A21.5,21.5,0,0,1,87.37,56.82l2.1,3.08c-3.51,2-6.16,6.29-7.94,10.16A12.44,12.44,0,0,1,85.8,74.38ZM49.14,130.73l-15,7.44-2.89-6.65L46.9,126ZM59.3,141.91l-8.67,13.61-6.19-4,9.93-13Zm24.31-33.85-17.09-.17,8.56-13.46Zm3.63,5.9a19,19,0,0,1,2.61,8.17l-29.7-.31a19,19,0,0,1,2.45-7.6ZM75.35,138.23c-7.79-2.48-12.1-6-14-10L88.74,128C86.91,131.91,82.75,135.51,75.35,138.23Zm2.53,6.53.94,16.56-7,.2.56-17.11ZM106.26,151l-5.59,4.51L91,142.29l4-3.51Zm-4-24.32L118,131.87l-3,6.93-14.39-7.15Z"/></svg>