<svg id="Слой_1" data-name="Слой 1" xmlns="http://www.w3.org/2000/svg" xmlns:xlink="http://www.w3.org/1999/xlink" viewBox="0 0 150 190"><defs><style>.cls-1{fill-rule:evenodd;fill:url(#linear-gradient);}</style><linearGradient id="linear-gradient" x1="75" y1="56.13" x2="75" y2="147.86" gradientUnits="userSpaceOnUse"><stop offset="0" stop-color="#ffb400"/><stop offset="0.25" stop-color="#ff6400"/><stop offset="0.5" stop-color="#ff1e00"/><stop offset="1"/></linearGradient></defs><title>Монтажная область 21</title><path class="cls-1" d="M124.34,67.74l-12.64.1-8.58,2c0,3.59-2.21,7.09-6.7,7.09-10.87,0-10.07-14.65-.66-14.65,4.11,0,28.58.26,28.58.26ZM104.5,79.28c6,2.18,10.66,6.77,11.54,14.2L77,94a16.64,16.64,0,0,1,9.2-13.87Zm-31.72-2.2L71.46,62l14.32,3.89L85,72.54ZM26.65,126.25c20.61-5.21,21.6-25.56,40.47-15.14C55.45,114.59,51.48,140.4,26.65,126.25ZM56.94,84.59C60,110,34.29,118,26.18,119.35l.57-13.7C34.71,104.56,52.13,94.21,56.94,84.59ZM25.66,97.4c17.63-5.71,12.91-36.74,35.26-35C49.25,73.57,54,100.62,25.66,97.4Zm.5-7.26V74.75s7.44-4.47,13.9-18.62C43.29,82.44,26.16,90.14,26.16,90.14Zm31,36.36c-3.48,25.32-31,21.1-31,21.1V134S46.76,137.67,57.19,126.5Zm58.74,6.63-38.77-1.07c-.12-10-.26-23-.29-32.35l39.33-1C116.17,108.52,116,122.7,115.93,133.13Zm-.15,13.66-38.43.1s0-3.44-.11-8.66l38.64-.38C115.82,143.23,115.78,146.79,115.78,146.79Zm-9.39-74.86L111,71l10.66,5.5-2.08,4.06-14.28-6.09Z"/></svg>