<svg id="Слой_1" data-name="Слой 1" xmlns="http://www.w3.org/2000/svg" viewBox="0 0 150 190"><defs><style>.cls-1{fill-rule:evenodd;}</style></defs><path class="cls-1" d="M85.66,109.53H79.11v23.89l-6.26,0-.16-23.84H66.13v23.8L38.5,133.1l.13-12.18H41.8c0-4.91-.07-9.92-.07-12.7,0-4,2.23-8.28,4-11.06l-5.72.08.15-16.76h7.67c0-.51,0-.84,0-.89,0-6.63,2.53-10.18,7.66-10.82l.51-5.6H61.5l1.09-23.29,5.54.53-.25,5.47,14.06.36-.27-5.9h5.25l1.34,22.83h6.25l0,5.82c5.25,1,7.72,4.5,7.72,10.94v.48h7.19l.48,15.81-5.37.08c1.74,3.66,3.81,8.75,3.81,12.34,0,2.48,0,7.31,0,12.22H111l.47,12.82-25.68-.19ZM52,109.1c-7.53,0-7.9,11.46.13,11.46C59.48,120.56,59.53,109.1,52,109.1Zm1.06-27s0,.76,0,8.15c0,4.13.34,7.46,5.72,7.46,2.46,0,8.33,0,14.56-.1V82.28ZM82.15,51l-14.54.89-.27,5.84,15.1-.45Zm.53,11.76H67.11l-.27,5.86c5.07,0,11.09,0,16.11,0ZM99,119.13c5.49,0,5.53-8.6-.1-8.6S93,119.13,99,119.13Zm-1.91-28c0-6.39,0-8.66,0-8.66l-18.91-.17.15,15.25c5.72,0,11-.09,13.6-.09C96.3,97.48,97.13,94.78,97.13,91.15ZM42,143.16v-5.48l15.52.1v5.38C57.52,149.45,42,149.45,42,143.16Zm66.33,0c0,6.29-15.52,6.29-15.52,0V138l15.52.1Z"/></svg>