<svg id="Слой_1" data-name="Слой 1" xmlns="http://www.w3.org/2000/svg" viewBox="0 0 150 190"><defs><style>.cls-1{fill-rule:evenodd;}</style></defs><title>Монтажная область 57</title><path class="cls-1" d="M110.91,100.73,79.75,71.13c9.84-9.87,25.08-14.81,44-6.83C126.7,75.16,121.87,91.27,110.91,100.73ZM99.25,70.2c-3.85,3.85,2,9.92,5.71,6.24C109.33,72.07,103,66.42,99.25,70.2Zm.91,40.54L67.08,77.45l5.09-5.72L105.88,106ZM89.94,121.53,63.14,94.35l3.68-8.08L97.3,117.53Zm-22.07-2-16.35-17.3,3.64-7.73L75,115.89ZM55.11,115.1l10,9.84c3.75,21.66-7.55,29-7.55,29L46.83,136.11l-21.45-10.9S40.2,113.38,55.11,115.1Z"/></svg>