<svg id="Слой_1" data-name="Слой 1" xmlns="http://www.w3.org/2000/svg" viewBox="0 0 150 190"><defs><style>.cls-1{fill-rule:evenodd;}</style></defs><title>Монтажная область 47</title><path class="cls-1" d="M35.69,141.84l5.14-9.57c0-15.72.22-28,.22-40.12,0-35.34,65.36-35.29,65.36,0,0,11.76.35,28.08.35,42.17l4.79,8.63C97.18,149.79,46.22,148.81,35.69,141.84ZM84,124.46c-7-.86-13,2-11.18,8.74C79,136.47,83.14,131.51,84,124.46Zm1.46-11.9c-7-.86-13,2-11.18,8.73C80.47,124.56,84.6,119.61,85.47,112.56Zm-12.41,30,0-6.47-4.27-.79-1.78,7.24Zm-3.66-9.76c3.42-6.09-1.7-10.32-8.73-11.18C59.8,128.64,62.62,134.45,69.4,132.78ZM62.5,80.85l.9,24.57,3.51-.35L67,80.46Zm-.37,28.84c-.86,7,1.95,12.86,8.74,11.18C74.28,114.79,69.16,110.56,62.13,109.69Zm11.76,1.75c7.26-2.24,6.63-9.22,1.88-15.31C69.7,100.87,67.31,107.68,73.89,111.44Zm-2.55-39-.89,21.5L74.27,93,76,72.41Zm9.49,1-3.33,20L81,95.22l4.34-20.64Zm6.53,9.63-5.81,23.78,3.33,1.2,6.78-23.51ZM65,61l-5.89-8.56,8.38-4-1.7-6.75,21.47,2.39-5.6,16.7Z"/></svg>