<svg id="Слой_1" data-name="Слой 1" xmlns="http://www.w3.org/2000/svg" viewBox="0 0 150 190"><defs><style>.cls-1{fill-rule:evenodd;}</style></defs><title>Монтажная область 47</title><path class="cls-1" d="M102.69,103.67c-5.65,6-5.77,9.49-5.77,22.15,0,19-3.48,22.3-21.78,22.3s-22.06-3.5-22.06-18.6c0-13.81,0-15-5.77-20,18.12,0,19.07,6.25,19.07,19.21l.3,14.72,5.74.31-.91-40.49C55.66,93.31,47.82,82.11,59,62.4l8.46,3.18,7.45-5.36,7.86,6,6.71-4.18c14.4,18.82,4.73,30.8-11.19,41.37l-.37,40.44,5.67-.21-.14-20C83.43,109.24,88,103.67,102.69,103.67ZM83.5,80,91,75.45l-3.42-5.9-5.5,2.52-7.16-5-6.5,4.8-6.72-2.72L59.64,75l7.43,4.73,8.1-5.26Z"/></svg>