<svg id="Слой_1" data-name="Слой 1" xmlns="http://www.w3.org/2000/svg" viewBox="0 0 150 190"><defs><style>.cls-1{fill-rule:evenodd;}</style></defs><title>Монтажная область 2</title><path class="cls-1" d="M76.54,148.71c-61.79,0-59-88.29-1-88.29C133.34,60.42,133,148.71,76.54,148.71Zm29.52-46.08L89.94,95.22l-1.38-19.5,12.09-.39c-6.11-5.49-14.49-9-25.17-9-.93,0-1.84,0-2.73.09l4.87,5.85L61.89,83.69,44.4,81.42a39.37,39.37,0,0,0-6,12.86l6.45,15-6,7.85A35.32,35.32,0,0,0,52.54,136l8.52-1.39,6.55,7.4a50.15,50.15,0,0,0,8.72.74,40.11,40.11,0,0,0,11.91-1.72l1-14.85,16.53-12,4.3,6.13a43.55,43.55,0,0,0,1.73-25.61Zm-56.62,7.28,13-17.81,21.42,7V121.7l-20.7,6.5Z"/></svg>