<svg id="Слой_1" data-name="Слой 1" xmlns="http://www.w3.org/2000/svg" viewBox="0 0 150 190"><defs><style>.cls-1{fill-rule:evenodd;}</style></defs><title>Монтажная область 1</title><path class="cls-1" d="M68.8,133.73l.26-5.68c14-.61,20.81-7.9,20.81-20.24C89.87,92.9,77.5,88,69.37,89.74,70.35,86.82,74.58,65,56.69,65,39.45,65,43.09,82.6,43.73,86,30.81,86,28.4,97.43,28.4,102.86c0,7.21,6.26,14.84,19.49,14.84v6.18c-31.91,0-33.2-36.27-11.76-43.36C34.19,67,43.46,57.81,56.64,57.81c12,0,21.64,8.93,20.28,24.79l17-24.79,22.49,29.53-7.58,3.14,13.63,15.82-11.11,4.16,18.2,22Zm-29-35.21,1.83-3.93,12.26,7.17.53-18.36,6.64-1.23L63,110.41,78.22,99.47l2.44,5.16-17,17,1.67,25.66-12.72-.61,1-33.29ZM104.18,138l.88,8.75H87.42l.89-9.63Z"/></svg>