<svg id="Слой_1" data-name="Слой 1" xmlns="http://www.w3.org/2000/svg" viewBox="0 0 150 190"><defs><style>.cls-1{fill-rule:evenodd;}</style></defs><title>Монтажная область 30</title><path class="cls-1" d="M125.58,114.7l-5.81.13,1,32.65-90.1-.15-.26-32.16-6.21.34-2.53-4L53.49,70.9l45.14,2,29.7,37.36Zm-35.24-2.77L60.08,79.47,36.7,109.66l.15,31.57,8.86-.07.16-4.31c8.59-1.73,13.36-8.62-2.37-12.45l.22-5.46,26.67-.44,1.2,3.63L83.72,122l.45,1.33c-4.9,5.6-13.87,7.25-13.87,7.25v0c-2.8,1.18-3.91,3.75,5.51,6.75l-.08,3.64,16.4-.12Zm-14.88,1L57.17,109.6l-.75,5.79L49,114.16l.84-5.91-2.34-.43,1.12-5.2,2,.25.4-2.8,5.55-3.41,2.22.39-.88,6.73,18.34,2.29C80.77,106.69,79.56,113.58,75.46,113Z"/></svg>