<svg id="Слой_1" data-name="Слой 1" xmlns="http://www.w3.org/2000/svg" viewBox="0 0 150 190"><defs><style>.cls-1{fill-rule:evenodd;}</style></defs><title>Монтажная область 71</title><path class="cls-1" d="M130.4,94.8l.16,52.68-15.3-.07-.07-3.8H34.81l-.07,3.81-15.3.07L19.6,95H16.53V87.11L38.48,87v8H35.79l-.14,7a19.76,19.76,0,0,0,8.14-2.33l.1-8.32,4.7-3.12-.05,8c2.63-2.37,5-5.06,8.28-7.24l.07-6.77,4.7-1.34,0,5.7a28.9,28.9,0,0,1,8-1.68l0-5.84L75,75.64,80.5,79l0,5.84a28.64,28.64,0,0,1,8.25,1.78l0-5.8,4.7,1.34.07,7c3.25,2.22,5.61,4.93,8.28,7.3l0-8.2,4.7,3.12.1,8.46a20,20,0,0,0,7.87,2.19l-.14-6.91-2.69.05V87.1l22-.25v7.89Zm-94.87,13L35,137l8.39,0,.38-31.34A22.87,22.87,0,0,1,35.53,107.82Zm13-5.08L48.28,137h8.06l.41-41C53.94,98.2,51.37,100.64,48.49,102.74Zm13-9.87L61.27,137l8.65,0-.34-46.77A23.24,23.24,0,0,0,61.52,92.87Zm18.9-2.61-.34,46.79H89l-.24-44A23.44,23.44,0,0,0,80.42,90.26Zm13.1,6,.41,40.85,8.06,0-.22-34.16C98.89,100.85,96.32,98.42,93.52,96.22Zm13,9.55.37,31.33h8.13l-.58-29.29A22.92,22.92,0,0,1,106.55,105.77Zm12-25L114.71,67l7.85-6.21,7.84,5.54-3,14.32ZM23,80.75,19.4,67l7.85-6.21,7.83,6.09L31.82,80.63Z"/></svg>