<svg id="Слой_1" data-name="Слой 1" xmlns="http://www.w3.org/2000/svg" viewBox="0 0 150 190"><defs><style>.cls-1{fill-rule:evenodd;}</style></defs><title>Монтажная область 15</title><path class="cls-1" d="M103.31,96.92l-7.74-6.64-5.15,0,16.72,22.14-12.57,31.2,8.5,8.35-2.29,2.65-8.07-7.12-4,0,11-33.18L88.49,107a88.8,88.8,0,0,0-2.56,19c0,11.41-2.08,20.24-8.09,25.2l.64-67.1,14-.07L95,82.12,105,92.24l6.23,1-.45,3.69ZM98.79,79.27,94.54,77.7,76.05,81.2,56,76.79l-4.42,1.64-4-16.86-4.2-4.33,2.14-3.14L52,59.34l3.2,10.9,11.88,3,3.06-6.69c-1.25-8.45-2.92-14.48-9-19.63l2.34-2.49c7.68,6.29,9.65,11.38,10.84,18.84h3.36c1.19-7.45,3.16-12.54,10.84-18.83l2.33,2.49C84.91,52,83.21,58,82,66.27l3.33,7,10-2.43,3.3-12.35,6.8-4.74,2.08,3.39L103,60.93Zm-43,2.82,2.58,2.11,14.88-.08,0,66.88c-6-4.76-8-13.11-8-25.16a80.27,80.27,0,0,0-2.7-18.27l-10.87,7,11,32.5-4.24.17-8.15,7.06-2.67-2.53,9-8.63L45,113.69,62.22,90l-5.69,0L48.84,97,39,96.76l-.27-3.58,8.16-1.34Z"/></svg>