<svg id="Слой_1" data-name="Слой 1" xmlns="http://www.w3.org/2000/svg" viewBox="0 0 150 190"><defs><style>.cls-1{fill-rule:evenodd;}</style></defs><title>Монтажная область 42</title><path class="cls-1" d="M100,120.61l-8.14-19.1-2.1-.23L83,125l-7.37-14.27-1.52-.37-5.58,11-19.61.55a22.61,22.61,0,0,1-1.37-7.58A14.57,14.57,0,0,1,50.63,105c-5.69-11.54-3.05-21.26,2.89-26.8l-2.51-9L58.7,66l3,7.73a17.88,17.88,0,0,1,3.93-.53l2.21-8.32,7,1.54L71.19,86.35c-4.48-1.48-8.29,4.57-3.15,11l0,.06,3,3.23,2.82-2.38-2.62-5.46A20.43,20.43,0,0,1,77.21,88c.23-9.53,1.44-23.28,6.24-29.52,2.88-3.75,19.64,1.05,15.66,7.93-3.79,6.57-4.47,14.9-4.34,20.89a24.36,24.36,0,0,1,7.8,4.89c6.52,6.09,10.25,16.26,10.64,28.21ZM95.25,65.16c.63-2.36-8.53-4.8-9.15-2.49C85.43,65.19,94.62,67.53,95.25,65.16ZM26,92.5c-2.87-3.76,6.09-18.7,11.72-13.08a29.37,29.37,0,0,0,6.35,4.74c-2.26,8-.6,16.29.09,19.12C36.84,100.57,29.38,96.91,26,92.5ZM74.59,119l8.2,18.49,2.32-.9,6.08-20.69,5,10.59,16.9.08a78.29,78.29,0,0,1-4.2,20.65c-25.07,7-49.43-5.44-58.1-21l21-.19Z"/></svg>