<svg id="Слой_1" data-name="Слой 1" xmlns="http://www.w3.org/2000/svg" viewBox="0 0 150 190"><defs><style>.cls-1{fill-rule:evenodd;}</style></defs><title>Монтажная область 3</title><path class="cls-1" d="M85.2,90.75a53.47,53.47,0,0,1,9.28.67c10.52,1.72,17.7,5.66,22.25,10.55-4.48-.47-10.91-.39-20,.5l6.12,11.81,20.12.41c1.33,9-2.72,17.8-9.18,21.13l-39.52-1.39L62.56,118.7l-41.62-8.31L10,122.61l-7.38-2.77,6.18-18.33L1.28,84l9.44-2L23.31,99.14l31.06,1.55c3.11-2.71,8.5-5.59,15.17-7.55L72,74.93,2.49,76.25l-.61-5.6,71-2.39.41-3,8.92-.69.38,3.39,65.06-2.19,1.05,7.73L83.38,74.71Zm48.3,41.61,3.22,3S132.66,147,118.58,147c-7.2,0-67.39.34-67.39.34l-.89-5.87s60.09-2.1,67.3-2.1S133.5,132.36,133.5,132.36Z"/></svg>