<svg id="Слой_1" data-name="Слой 1" xmlns="http://www.w3.org/2000/svg" viewBox="0 0 150 190"><defs><style>.cls-1{fill-rule:evenodd;}</style></defs><title>Монтажная область 9</title><path class="cls-1" d="M104.91,147l.14-50.29c8.21,0,14.12.06,15.5.09,6.42.14,8.64,3.78,8.64,9.64,0,4.28.62,40.56.62,40.56Zm8.65-9.43,5.71.35.07-10.63-5.66-.31Zm.33-28.37-.11,9.56,5.63,0,.06-9.39ZM82.31,125l-12.79,0v22.15l-19-.13s-.42-70.51-.32-75.34c.14-6.34,2.95-9.35,8.41-9.35,4.4,0,26.3.12,31.94.24,6.42.14,8.64,3.78,8.64,9.65,0,4.27.62,75.14.62,75.14l-17.26-.12ZM75.38,71.14c-20.37,0-22.11,31.77,1.44,31.77C96.67,102.91,96.15,71.14,75.38,71.14Zm-3.23,25.7,0-6.85-7.79-.18.76-6.17,7-.06,0-6.92h7l0,6.87,7.23-.07.29,6.88L79,90.15l0,6.54ZM20.2,105.91c.14-6.33,2.95-9.34,8.41-9.34l15.44,0L45.55,147h-25C20.51,146.94,20.1,110.74,20.2,105.91Zm16.15,3.44-5.58-.14-.11,9.57,5.62,0Zm-.2,28.58.07-10.64-5.66-.3-.12,10.59Z"/></svg>