<svg id="Слой_1" data-name="Слой 1" xmlns="http://www.w3.org/2000/svg" viewBox="0 0 150 190"><defs><style>.cls-1{fill-rule:evenodd;}</style></defs><title>Монтажная область 31</title><path class="cls-1" d="M90.86,90c-5.45,7.14-25,7.47-31.61.56-6.19,7.11-27.59,7.91-34.58-5.68l4.17-4.56c4,6.2,12.26,8.82,19.56,7L53.25,71l9.21-1.74,9.78-13.54,12,5L98.85,85.65c7.57,3,17.18,1.27,22.51-5.14l4,3.61C118.74,98.08,98.77,97.66,90.86,90ZM59.25,97c6.56,6.91,26.16,6.58,31.61-.56,3,2.92,7.75,4.79,12.84,5.23l-11,36.16-5.86-.86L74,152.77l-5.32-6L58,141.34l-7.39-20.91L40,115.49l.84-13.77C48.31,102.75,56,100.75,59.25,97Z"/></svg>