<svg id="Слой_1" data-name="Слой 1" xmlns="http://www.w3.org/2000/svg" viewBox="0 0 150 190"><defs><style>.cls-1{fill-rule:evenodd;}</style></defs><title>Монтажная область 31</title><path class="cls-1" d="M102.05,103.33c-4.93,3.23-13.34-.66-13-7.87-6.25,3.49-13.81-.92-13.59-7.67C70.24,91.1,60.7,86.55,62.12,79.3c7.59-13.15,24.35-22.46,42.18-12.17S123,97.92,115.66,110.56C110.7,114.59,102.93,109.86,102.05,103.33ZM50.78,65.14c-13.19,0-12.6-18.85-.21-18.85S62.83,65.14,50.78,65.14ZM35.67,74.26c-7.67,0-7.32-11-.13-11S42.67,74.26,35.67,74.26Zm12.15,3.62c7.16,0,7.12,11,.12,11C40.27,88.84,40.62,77.88,47.82,77.88Zm8.58,28.76c2.22-3.85-1.87-6.41.89-11.2a9.81,9.81,0,0,1,5.65-4.57l7,3.62c-2.89,2.06-6.4,2.55-7.27,4-1.17,2,2,6.14-.89,11.2s-8.59,5.23-9.82,7.36a55.53,55.53,0,0,0-2.41,6.21l-4.82-1.16s.59-5.68,2-8.08C49.53,109.12,54.18,110.49,56.4,106.64Zm3.69,22.66c2.23-3.85-1.87-6.41.89-11.2,3.25-5.63,8.39-4.21,10-6.94s-2.69-6.82.1-11.66a6.27,6.27,0,0,1,3.14-2.79L81,100.24c-1.68.54-3.2,1.15-4,2.44-1.81,3.14,2,6.81-.72,11.57s-8.79,4.92-10,6.94,2,6.14-.89,11.2-8.6,5.23-9.83,7.36a62.75,62.75,0,0,0-2.49,5.89L48.59,144s.23-4.57,1.78-7.26C53.22,131.78,57.87,133.15,60.09,129.3Zm8.77,5.33c2.92-5.07,8.08-4.35,9.25-6.37s-1.71-7.34,1-12.1,7.85-3.28,9.66-6.41c.86-1.5.42-3.43,0-5.46L95,107.55a6.82,6.82,0,0,1-.49,5.78c-2.79,4.84-8.46,3.18-10,5.92s2.22,6.47-1,12.1c-2.77,4.78-7,2.52-9.26,6.37s1.29,7.19-1.56,12.13c-1.53,2.64-5.31,5.13-5.31,5.13l-4.68-2.78a44.62,44.62,0,0,0,4.74-5.39C68.63,144.69,65.94,139.69,68.86,134.63Zm21.78-9.06c2.93-5.06,8.09-4.34,9.26-6.37.93-1.61-.69-5.29,0-9.13l6.16,3.21c.42,2.34,1.39,5.25-.78,9-2.76,4.79-7,2.52-9.25,6.37s1.29,7.2-1.56,12.13c-1.83,3.17-6.39,5.55-6.39,5.55l-3.52-3.57s3.76-3.47,4.65-5C90.41,135.63,87.72,130.64,90.64,125.57Z"/></svg>