<svg id="Слой_1" data-name="Слой 1" xmlns="http://www.w3.org/2000/svg" viewBox="0 0 150 190"><defs><style>.cls-1{fill-rule:evenodd;}</style></defs><title>Монтажная область 7</title><path class="cls-1" d="M58.54,105.68c-8.4,0-16.21,3.35-27.32,5.49a49.1,49.1,0,0,1-.33-12.39l88.25,3.54a43.13,43.13,0,0,1-.29,11C79.41,112,69.23,105.68,58.54,105.68ZM39.79,77.25l66.91-3.38a44.69,44.69,0,0,1,9.6,15.92L32,92.57A39.58,39.58,0,0,1,39.79,77.25Zm61.7-8-51.37-1C65.4,58.65,86.51,58.15,101.49,69.26ZM58.55,109.21c13.37,0,13.29,14.74.23,14.74C44.47,124,45.12,109.21,58.55,109.21Zm58.77,10.32a39.17,39.17,0,0,1-6,11.34l-71.37,2.39a43.77,43.77,0,0,1-6.22-11.9c9.55,2.52,16.94,5.91,24.82,5.91C72.24,127.27,79.5,121,117.32,119.53Zm-71.51,20,54.54,1.41C84.07,151.57,60.92,152.37,45.81,139.53Z"/></svg>