<svg id="Слой_1" data-name="Слой 1" xmlns="http://www.w3.org/2000/svg" viewBox="0 0 150 190"><defs><style>.cls-1{fill-rule:evenodd;}</style></defs><title>Монтажная область 21</title><path class="cls-1" d="M101.08,93.38,50.17,123l-.35,6.84L28.55,142.11l-8.46-15,20.78-11.8,5.74,2.53,7.45-4.22c-2.79-18.19,3.8-36.88,20-53.13,9.72,9.71,16,20.28,18.91,31.11l5.5-3.11.75-6.91L120.6,69.14,129.35,84l-22,12.65ZM74.24,88.46c-7.2,0-9.68,7.58-9.68,16.92,0,.78,0,1.54,0,2.29L83.09,97.22C81.87,92,79.16,88.46,74.24,88.46Zm0,33.84c6.58,0,9.13-6.1,9.59-14.1l10.89-6.76c1.32,17-5.55,34.08-20.61,49.13-8-8-13.76-16.74-17.11-25.72l10.28-6.38A7.76,7.76,0,0,0,74.24,122.3Z"/></svg>