<svg id="Слой_1" data-name="Слой 1" xmlns="http://www.w3.org/2000/svg" viewBox="0 0 150 190"><defs><style>.cls-1{fill-rule:evenodd;}</style></defs><title>Монтажная область 20</title><path class="cls-1" d="M106.72,116.08a33.84,33.84,0,0,1-6.22,17.08l3.29,5.48L100.12,142l-4.18-3.89c-5,4.19-11.6,6.82-19.92,6.82-9.22,0-16.46-2.7-21.79-7l-4.35,4-3.67-3.31,3.32-5.53a32.24,32.24,0,0,1-6.47-17l-5-.17L37.85,111l5.25-1.31A33.48,33.48,0,0,1,50,92L46,87.67,49.27,84l5.49,3.29a29.52,29.52,0,0,1,5-3.22,15.67,15.67,0,0,1,1.85-5.14L55.28,68.55l3.57-2.45,7.86,7.67a16.86,16.86,0,0,1,16.38-.09l7.77-7.58,3.56,2.45-6.07,10A15.14,15.14,0,0,1,90.48,84a28.08,28.08,0,0,1,5,3.22l5.3-3.18L104,87.67l-4,4.27a33.74,33.74,0,0,1,6.67,17.67l5.42,1.35-.26,4.94Zm-34.79,23.2,0-5.89c-9.35-.35-9.2-14.77.11-14.83l.26-32.5C41.18,88.8,39.49,135.8,71.93,139.28Zm6.65-53.17-.06,5.4c13.08,2.82,12.83,23.25-.32,25.58l-.27,22.33C109,137.34,109.55,89.34,78.58,86.11Zm10.92,31.2c7.37,0,7.32,11.26.12,11.26C81.74,128.57,82.1,117.31,89.5,117.31ZM63.4,106.76c-7.77,0-7.42-11.09-.13-11.09S70.49,106.76,63.4,106.76Zm-5.77,12.63c-5.05,0-4.82-7.22-.08-7.22S62.24,119.39,57.63,119.39Z"/></svg>