<svg id="Слой_1" data-name="Слой 1" xmlns="http://www.w3.org/2000/svg" viewBox="0 0 150 190"><defs><style>.cls-1{fill-rule:evenodd;}</style></defs><title>Монтажная область 57</title><path class="cls-1" d="M80.21,146.43l-1.1-13.19,51.7,1.1-1.1,13.19Zm2.51-24.51c-5.56-.47-7.47-4.79-6.6-8.44l13.31,2.94C89,119.52,86.65,122.26,82.72,121.92Zm-3.48-12.09c-2.41-.88-6-2.27-10.25-3.94-8.28,6.14-19.87,14.69-25.84,18.9-9.93,7-19.48-5-19.48-5L46.43,96.86c-3.38-1.36-6.64-2.69-9.57-3.88l-17-6.66L19.19,63.9s10-4.08,13.87,5.85c.69,1.74,1.47,3.73,2.3,5.81,13.14,3.16,40.45,9.91,51.36,13.89,12.08,4.42,23.52,15.08,21.56,20.44S91.46,114.29,79.24,109.83ZM50.78,48.63s15.15-2.78,17.72,8.62c1.11,4.9,3.11,13.27,5,21.23L52.33,75.2Z"/></svg>