<svg id="Слой_1" data-name="Слой 1" xmlns="http://www.w3.org/2000/svg" viewBox="0 0 150 190"><defs><style>.cls-1{fill-rule:evenodd;}</style></defs><title>Монтажная область 30</title><path class="cls-1" d="M118.93,97.19l-.51-5.64,10.39-2,.28,7.94ZM107.37,75l8.95-9.84,5.32,5.07-10.4,8.88ZM95,133.91l-.31,5.64c4.48.93,5.87,3.78,5.87,7.77l-46.83.16c0-3.87,1.58-6.47,5-7.48l-.67-6.5c-7.11-.72-13.78-8.2-12.92-14.85,2.94-22.6,4.71-40.12,5.16-43.28,1-6.91,7.36-11.52,14.82-11.52H67.8l.42-3.58c-7.76-.91-11-2.85-11-2.85L76.45,44.35,94.38,58s-2.55,1.8-10.84,2.5L84,63.91H88.4A13.7,13.7,0,0,1,102,76c.25,2.44,2.14,21,4.28,43.24C106.93,125.64,102.13,132.4,95,133.91Zm-18.81,4.2c5.37,0,5.63-8.19-.09-8.19C70.9,129.92,70.87,138.11,76.23,138.11Zm-6.32-20.62,3.35.13c-1.22-3.88.38-9.23,4.34-10l2.18,10.31,3.12.13c6.69-7.38-2.48-17.11-2.48-17.11L82.7,93.2C62.64,98.16,62.58,109.8,69.91,117.49Zm30.31-.76c-1-10.85-2.26-24.12-3.29-35.66-.79-8.83-3.85-11.35-12.11-11.42l.52,3.67c2.77.29,4.82,2.18,4.82,6.7l-28.61.16c0-4.72,2.48-6.68,5.16-6.93l.44-3.79c-8.76.11-10.7,3.87-11.52,11.92-1.14,11.32-2.64,24.4-3.75,35.3-.66,6.57,1.9,9.84,8,10.6l4.89-3.7c-2.91-2.41-8.25-7.82-8.25-15.29,0-10.27,8.7-23.82,8.7-23.82l22.3.54S95,98.57,95,107.84c0,7.42-4.41,12.52-7.34,15.1l6.09,4.75C98.2,126.77,100.8,123.16,100.22,116.73ZM29.9,74.35l4.41-5.87,9,8.38-3.8,4.57Zm4.39,25.31L20.91,99l.51-6.84,13.17,1.59Zm4.91,17.77L30.71,123l-3.43-6.12,9-4.34Zm88.29-.2-3.65,6.34L113,116.29l3.07-5.63Z"/></svg>