<svg id="Слой_1" data-name="Слой 1" xmlns="http://www.w3.org/2000/svg" viewBox="0 0 150 190"><defs><style>.cls-1{fill-rule:evenodd;}</style></defs><title>Монтажная область 23</title><path class="cls-1" d="M91.24,76.29l.71,7-30.74-.34C61,72.13,60.9,64.23,60.9,64.23L80,64.47,81,70.74l14-.5v5.88ZM72.75,58.65l-1.27-7.58c-4.2.92-6,4.55-5.57,8.35l-3.61.41C53.3,54,55.23,41,63,38.24l2.26,4.15L76.16,32.2,76.2,45l8.22-.88L78.41,58Zm22.09,79.93c-.06,5.58-3.82,8.29-11,8.41s-5.12-.27-11.93-.16-9.58-3.75-9.71-9.25c-.24-9.83-.64-31.93-.94-49.32L95,87.41C95,105.18,94.93,128.5,94.84,138.58ZM69,94.35l.64,40,4-.17,1.72-40.55Z"/></svg>