<svg id="Слой_1" data-name="Слой 1" xmlns="http://www.w3.org/2000/svg" viewBox="0 0 150 190"><defs><style>.cls-1{fill-rule:evenodd;}</style></defs><title>Монтажная область 23</title><path class="cls-1" d="M33.94,139.38l6.31-1.65,4.42-7,14.3-3,.37-3.58,35.11.41,1,8.46,18.76,7.45,2.87,7.26-88.8-.26ZM90.35,90.31l1.19,9.94-29.77.45,1-9.7Zm3.22,26.94L60,117.69l1.06-10.25,31.38.38ZM60.75,84.48l-5.36-5.21.36-6.15,41.81.71.38,5.41-5.45,5.08Zm30.46-26.7-.14,11.53-5.6.18.22-11.68-5.67,0L79.7,69.69,74,69.88l-.17-12-5.23,0-.43,12.16-5.32.18L62.25,58,59,58l-.28-6.44L76.26,39.44l18.6,12.25-.42,6.07ZM38,56.33c-4.24-5.81-13.32-9.54-17.83-8.73l-1.3-3.32s13.61-3.75,21.44,1.78c3.54-4.81,10.85-6.58,10.85-6.58l1.34,2.3A22.32,22.32,0,0,0,41.32,56.09Z"/></svg>