<svg id="Слой_1" data-name="Слой 1" xmlns="http://www.w3.org/2000/svg" viewBox="0 0 150 190"><defs><style>.cls-1{fill-rule:evenodd;}</style></defs><title>Монтажная область 21</title><path class="cls-1" d="M89.71,81.71s-3.4,2.1-6.89,7.54L86,97.43l10.34.14,4.89-6.14a9,9,0,0,1,4.22,11.35l-22.36,2.88L78,99.77c-.47,1.53-.91,3.17-1.27,4.93-.88,4.18,0,7.64,1.29,11.19l6-3.54,11.13,5.4,1.39-7.24c3.39-.88,8.12,1,9.5,4.08l-6.29,9.48L86.38,122.5l-3.67,6.88a39.22,39.22,0,0,1-.35,15.91C78.86,162,67.66,169,55.84,174l-1.07-1.38c7.29-8.63,12.93-20.34,12.11-28.22a20.46,20.46,0,0,0-2-6.8l-10.47-2L49,148.94,36.5,146.37c.18-3.6.76-8.6,4.48-10l5.78,3.72L50,124.92l7.25-.22c-3.27-5.93-5.64-12.78-3.68-22.2a38.49,38.49,0,0,1,7.6-16.45l-6.28-6.76,1.73-24.85c4.11-2,10.4-.79,13.14,2.91L61.6,62.83l.76,12.57,6.88,3.12a41.89,41.89,0,0,1,15.33-6.64l3.66-11.14s25.31-7.16,29.37,1.53-16.93,22.66-16.93,22.66Z"/></svg>