<svg id="Слой_1" data-name="Слой 1" xmlns="http://www.w3.org/2000/svg" viewBox="0 0 150 190"><defs><style>.cls-1{fill-rule:evenodd;}</style></defs><title>Монтажная область 24</title><path class="cls-1" d="M96.43,106.74l-6.71,2.93-2.9,8.82L60,147.08l-7.18-.94-5.39-8.53,20.88-21.74-13.26-13c-37.16-12.7-4.65-48,10.58-9.62l13.87,13,10.73-3.22,3.94-7.56c-.4-39.79,44-9,4.32,5.59Zm-34.1-10-2.76,1.68L73.05,111l2.1-2.19Zm16.44,14.57L53.91,137.87,56,141l23.43-24.17ZM57,73.06l-6.1-.86a21.59,21.59,0,0,0-1.32-7L43.78,68l-1.43-7.55c-8,1.79-12,14.67-7.05,21.16l-3,5.35C10.9,69.5,27.16,39.48,40.69,38.21L40,46.28,57.54,35.65,54,49.22l11.21.4L57.93,59.8l7.27,2.77Zm47.87,67.53,1.56-2.39-16-15,3.35-3.51,19,17.83L108,146.39l-7.12,1.37L83.4,130.62l5.06-5.3Z"/></svg>