<svg id="Слой_1" data-name="Слой 1" xmlns="http://www.w3.org/2000/svg" viewBox="0 0 150 190"><defs><style>.cls-1{fill-rule:evenodd;}</style></defs><title>Монтажная область 61</title><path class="cls-1" d="M94.33,149.88c-18.26,0-18.26-10.39-33.38-10.39s-15.11,1.89-22,1.89S27,131,27,131s-.35-7.24-.35-21.27c0-29.61,96.8-27.27,96.8-2.16,0,15.5-.74,24.37-.74,24.37S117.62,149.88,94.33,149.88ZM32.41,111c0,8.49,3.37,12.07,10.6,12.07,6.13,0,6.13-1.67,19.52-1.67s13.39,9.2,29.57,9.2c19.27,0,24.83-11.94,24.83-21.17C116.93,87.66,32.41,89.92,32.41,111Zm59.64,15.37c-6.71,0-14.35-3.94-14.35-7.87,0-6.41,13.66-4.32,13.66-11.11,0-3.48,4.63-5.33,7.87-5.33s12.27.93,12.27,10.42S98.77,126.38,92.05,126.38ZM80.82,109.52c-7.07,0-7,9-17.54,7.28-9.11-1.47-18.74,4.53-23.58-.72-8.17-8.91,12.68-16.49,30-17.41C92.29,97.46,89,109.52,80.82,109.52Z"/></svg>