<svg id="Слой_1" data-name="Слой 1" xmlns="http://www.w3.org/2000/svg" viewBox="0 0 150 190"><defs><style>.cls-1{fill-rule:evenodd;}</style></defs><title>Монтажная область 22</title><path class="cls-1" d="M84.34,58.2l14.37,7.32-1.89,3.53H92.48l-2.74,6.24-9.95-4.52,3.46-4.16-1.08-5.16Zm5.19,28.69a41,41,0,0,1,6.57,5.85l3.19-2.16-1.85-4.27,3.45-2.14,8,11.41-2.6,1.67L102.78,95l-3.11,2.4c8.06,12.67,5.64,27.69-1.7,38.22l.73,11.47H59.15v-8.78l-14.46-5.42,2.84-7L61,131.88l20-.26c13.85-12.09,10.54-26,3.44-33.55L79,109.82,43.18,93l5.37-9,14.51,7L73.77,71.64l17.9,10.58Zm-29,19,11.81,6.7-6,11.28-2.89-1-2.35,4.5-6.14-2.59,1.86-4.09-2.4-.8ZM47.15,98.36,57.28,104l-5.93,9.43-3-.83L46.11,117l-4.47-1.54,1.91-4.2-2.45-.69Z"/></svg>