<svg id="Слой_1" data-name="Слой 1" xmlns="http://www.w3.org/2000/svg" viewBox="0 0 150 190"><defs><style>.cls-1{fill-rule:evenodd;}</style></defs><title>Монтажная область 24</title><path class="cls-1" d="M69.09,106.1,44.36,129.38l-13.5-11.12L69.19,85l-7.81-8.84-7.77,2.6L29.28,54.52,44.09,43.47l31.3,36.16,10.4-9-4.52-7.27,23.67-22.71,13,10.69-51.4,47Zm11.47,15.77L71,122s-.13-4-.15-6.18c0-6.94,9.61-7,9.66.47C80.57,118.68,80.56,121.87,80.56,121.87Zm-18.93,1.46-1.47,19L71,142.28c0-2.17-.07-4.68-.08-5.77,0-6.94,9.61-7,9.66.47,0,1.21,0,3.38,0,5.24l9.64-.07-1.79-35.39-9.9-11.21,4.67-6.92,5.92,6.83,6.78-2.73,24.84,24.51-13.31,11-13-14.74,2.91,33.85-44.15.1,2-20.95Z"/></svg>