<svg id="Слой_1" data-name="Слой 1" xmlns="http://www.w3.org/2000/svg" viewBox="0 0 150 190"><defs><style>.cls-1{fill-rule:evenodd;}</style></defs><title>Монтажная область 6</title><path class="cls-1" d="M76.54,149.16c-61.79,0-59-88.29-1-88.29C133.34,60.87,133,149.16,76.54,149.16ZM92.26,140c32.23-14.54,27-73.2-16.78-73.2-12.29,0-21.72,4.58-28.16,11.49,4.07,7.57-1.28,18.06-9.59,19.44-3.81,20.45,7.6,43.81,35.52,45.41C77.31,136.69,86.47,135.8,92.26,140ZM78.06,76.45C91.5,76.45,91.42,97,78.29,97,63.92,97,64.57,76.45,78.06,76.45Zm18.48,19.4c8.65,0,8.59,13.21.15,13.21C87.44,109.06,87.86,95.85,96.54,95.85ZM63.69,128.06c-9.25,0-8.83-13.21-.15-13.21S72.13,128.06,63.69,128.06Z"/></svg>