<svg id="Слой_1" data-name="Слой 1" xmlns="http://www.w3.org/2000/svg" viewBox="0 0 150 190"><defs><style>.cls-1{fill-rule:evenodd;}</style></defs><title>Монтажная область 8</title><path class="cls-1" d="M91.37,126l-4.68,6.06-23.32,1.12c0-4.82-6.65-10.52-13-10.52-5.39,0-29.82.14-29.82.14C20.28,105.05,36,96.14,47,96.14c10.8,0,26.3,2.61,26.3,2.61l-4.82,20.83s6.19.57,9.76.57c6.58,0,13.88-7.64,13.88-17.51C92.1,88.24,83,75.1,83,75.1c-4.86,0-7-1.86-7-6.27l12.12-.78,19,36.73c14.36.64,19.84,9.27,22.3,17.54Zm7.84-43.87-2.79-7.7,6.71-1.25c3.12,2.31,2,9.4-.1,10.92ZM49.35,84.73c6.82.22,23.83.6,23.83.6l.19,8.26L42,91.77S42,84.49,49.35,84.73Zm-14.3,43.82c-1.95,4.64.4,11.09,7.49,11.09,6.14,0,8.58-5.79,7.24-10.35l8.53,3.86c-.54,7.56-5.73,14.71-15.48,14.71-12.85,0-18.08-10.35-16.33-19.31Zm69.85.38c-1.67,4.61.74,10.71,7.64,10.71s9.06-7.13,6.66-11.79l8.56-.65c2.43,9.24-2.6,20.66-14.94,20.66s-17.66-9.57-16.49-18.28Z"/></svg>