<svg id="Слой_1" data-name="Слой 1" xmlns="http://www.w3.org/2000/svg" viewBox="0 0 150 190"><defs><style>.cls-1{fill-rule:evenodd;}</style></defs><title>Монтажная область 29</title><path class="cls-1" d="M106.72,114.84,94.07,104l-9.87-1.29-.09.55,15.1,11.32L101,130l8.57,10-1.7,1.91L96.12,132,93.9,118.43l-10.83-9.3-.74,4.26,8.06,8.51,1.41,16.77,8.74,10.42-2.13,2L86,139.39,85.31,125,79,117.51c.19,7,.53,20.52.53,24.7,0,5.7-8.46,5.19-8.46.64,0-3.36.08-17.9.11-25.27L64.85,125l-.66,14.41L51.83,151.23l-2.21-2.14,8.75-10.42,1.4-16.77,7.75-8.18-.8-4.35-10.81,9.06L54.42,132,42,142.21l-2.17-2.16L49,129.63l1.59-15.1,15-11-.15-.84-8.36,1.09L43,114.41c-19.61,0-30.67-6.24-29.67-16.9h49.9L55.45,90l.95-15.66-6.75-9.23L52,62.57,61,73l0,14.29,8,7.17c0-1.63,0-3.45,0-5.09,0-3.28,1.47-5.37,3.33-6.3l.76-43.71,2.75,0,1.37,43.86c1.82,1,3.22,3.14,3.21,6.45,0,2,0,4,.08,5.68L89.27,87l-.38-14.2,8.57-10.46,2.2,2.25L93.51,74,95,89.56l-7.74,8h49.38C138.1,106.7,129.16,114.84,106.72,114.84Z"/></svg>