<svg id="Слой_1" data-name="Слой 1" xmlns="http://www.w3.org/2000/svg" viewBox="0 0 150 190"><defs><style>.cls-1{fill-rule:evenodd;}</style></defs><title>Монтажная область 78</title><path class="cls-1" d="M129.44,153.92c5.51.71,6.78,6.73-2.79,9.37-11.33,3.14-36.9,3.46-54.37-.15-11-2.26-11.53-9.66-4.08-11.89,3.56-1.06,9.83-1.7,8.4-3.51l-37.81-.26L37.61,89.06l6.51-11.61s14.57-.79,17.85-.79,6.73,2.19,10,4.12c4.2,2.45,13.27,8.64,17.84,11.38C94.17,94.75,95,99.37,95,104c0,3-.11,20.77-.19,32.76,13,0,34.75,1.53,34.75,6.3,0,3.34-2.21,4.87-4.4,5.59C121.76,149.74,122.9,153.06,129.44,153.92ZM83.67,98.46c-1.79-1-14.14-9.22-16.37-10.49-6.88-3.9-12,5-5.57,8.64,2,1.12,15.54,9.86,17.35,10.88C85.28,111,90.14,102.14,83.67,98.46Zm2.27,49.35c-1.15,6.84-13.51,5.8-13.51,8.68,0,2.55,7.61,3.6,21.67,3.6l.09-12.22ZM44.46,72.91l-.34-10.58,18.29.53-.29,9.58Z"/></svg>