<svg id="Слой_1" data-name="Слой 1" xmlns="http://www.w3.org/2000/svg" viewBox="0 0 150 190"><defs><style>.cls-1{fill-rule:evenodd;}</style></defs><title>Монтажная область 33</title><path class="cls-1" d="M125.36,100.85c-3.3-4-.69-8.9,3.61-8.48l.39,5.51c2,.1,5.88-3.47,2.9-7-2.6-3.13-7.2-3.29-10.46,1.31s0,13.53-6.2,22.3c-7.66,10.84-22.07,8.24-32.16,1.24a53.82,53.82,0,0,1-3.67,14.8c-4.1,10,1,16.91,5.81,17.72,13.74,2.36,16-13.57,7.79-15-6-1-6.42,4.41-5.33,6.13l5-2.42c2.51,3.52-.45,8.24-5.54,7.36-8.62-1.47-6.62-18.77,7.58-16.34,15.22,2.61,12,31.83-11.37,27.82-11.87-2-17.59-15.16-14-26.92,1.8-5.82,1.27-10.74-.32-14.39-2.48,8.72-8.53,16.52-15.08,19.11-17.92,7.1-29.62-14.83-36.66-9.32-2.11,1.65-2.23,5,.12,8,0,0-2.23,1.47-4.1.28-3.57-2.27-4.13-10.64.74-13.85,11.42-7.53,23,9.41,33.64,5.15,6.73-2.69,8.63-7.78,9.53-13-15.74,7.52-30.64.42-33-13.25-1.81-10.59,6.75-18.45,5.8-24s-5.07-7.66-8.77-5.95c-4.23,1.94-3,6.44-1.12,7.24l3.33-4.18c4.06,1.49,4.2,6.58-.49,8.74-3.69,1.69-7.52-.22-9.24-4.29-2.11-5,0-10.64,5.58-13.21,6.4-3,15.38,1.29,16.89,10.11,1.28,7.48-4.82,17.28-3.74,23.55,1.55,9.11,16.49,10.34,26.6-.3-12.86-4.87-17-13.65-17-20.23,0-6,3.92-18.55,19-18.55,14.09,0,25.66,10.69,23.15,37,9.6.5,16-7.17,14.79-14-1.49-8.75-8.94-11-10.55-20.44C86.18,43.54,101.2,42,104.55,47.89a3.39,3.39,0,0,1-.59,3.82c-3.94-3.28-10.31-2.09-9.11,4.93,1.39,8.15,11.38,10,13.78,20.75,3,13.51-3.8,24.08-17.7,27.66,6.43,6.53,13.36,9.64,18.07,3,3.67-5.19,3.29-13.93,7.67-20.13a12.59,12.59,0,0,1,19.68-1.19c3.93,4.74,3.53,10.29-.52,13.87C132.52,103.5,128,104,125.36,100.85ZM67.49,77.18c-5.45,0-5.59,8.45-.38,8.45C73.29,85.63,72.84,77.18,67.49,77.18ZM78.3,78.73a2.73,2.73,0,1,0,.06,5.45C81.87,84.18,81.89,78.73,78.3,78.73Z"/></svg>