<svg id="Слой_1" data-name="Слой 1" xmlns="http://www.w3.org/2000/svg" viewBox="0 0 150 190"><defs><style>.cls-1{fill-rule:evenodd;}</style></defs><title>Монтажная область 30</title><path class="cls-1" d="M135.76,94.6c-2,.93-3.68,1.29-8.18,1.29-5.88,0-21.67.11-21.67.11L83.3,85.86v3.38c5,2.84,23.1,13.19,29.7,17,7.68,4.43,8.73,5.33,14.56,12.89s3.4,9.9-4.58,9.2c-2.2-.2-3.83-.73-7.73-3C110.15,122.41,95,113.8,95,113.8L82.69,94.44,75,102.7,67.4,94.3,55,113.8s-15.14,8.61-20.23,11.55c-3.9,2.25-5.53,2.78-7.73,3-8,.7-10.41-1.64-4.58-9.2s6.88-8.46,14.56-12.89c6.72-3.88,25.39-14.53,30-17.15l0-3.33L44.31,96s-16-.11-21.89-.11c-4.5,0-6.17-.36-8.18-1.29C7,91.21,6.05,88,14.87,84.35s10.2-3.89,19.06-3.89h82.14c8.86,0,10.23.25,19.06,3.89S143,91.21,135.76,94.6ZM79.51,77.42h-8.3c-9.27,0-9.3-12.58-1.36-13.74,2.16-3.87,8.08-3.76,10.29-.06C88.44,64.39,88.13,77.42,79.51,77.42Zm1.21,31.63s-2.68,46.68-3,51.51a2.92,2.92,0,1,1-5.83-.15c-.21-4.31-2.63-51.74-2.63-51.74l5.59-4.16Z"/></svg>