<svg id="Слой_1" data-name="Слой 1" xmlns="http://www.w3.org/2000/svg" viewBox="0 0 150 190"><defs><style>.cls-1{fill-rule:evenodd;}</style></defs><title>Монтажная область 21</title><path class="cls-1" d="M106.29,126.84c-1.67,13.64-11.9,19.57-23.84,21.38l.61,6.63-7.37-2.45-3,7.78-5.13-9.28-9,1.68,2.57-6.87C49.76,141.07,41,132.57,42.83,118c1.63-13.3,16.67-18.8,23.51-28.8a28.63,28.63,0,0,0,3-6.13L60.67,61.71C70.78,64,76.61,77.7,77.56,83.15a60.42,60.42,0,0,1,.65,11.41l1.83.35s1.5-7.56,2.5-11C84,78.76,90,65.85,97.29,65.65L90.82,85.53s.62,4.49,1.05,6.68C94.25,104.26,108.2,111.27,106.29,126.84ZM80.8,74.44,77,66.28s6.61-28.93,11.42-29.06l-2.33,29.4Z"/></svg>