<svg id="Слой_1" data-name="Слой 1" xmlns="http://www.w3.org/2000/svg" viewBox="0 0 150 190"><defs><style>.cls-1{fill-rule:evenodd;}</style></defs><title>Монтажная область 21</title><path class="cls-1" d="M79.43,86a57.64,57.64,0,0,0-12.1-18.81L91,65.58A54.82,54.82,0,0,0,79.43,86ZM76.77,98.11l5.88-.81c0-13.09,11.24-32.8,23-36.76,0,4.16-.21,26.75-.21,39.15,0,33.48-17.6,46.23-57.94,46.67,5.23-5.08,12.85-13.26,12.85-24.25,0-12.68-3.68-21.66-15.61-22.53L44.3,60.63l2.46,0C63.33,64.67,76.77,83.93,76.77,98.11ZM96.08,81.56c-6.92,0-7.25,10.53.12,10.53C102.93,92.09,103,81.56,96.08,81.56Zm-1.5,27.86-6.74.37,1.69,9.08,2.43.47Zm-8.84,23.11,2,1,2.52-8.61-6.55-.31ZM83.33,110l-6.8.37,1.81,8.47,2.74.15Zm-8,22.86,2.41.22,1.78-8.69-6.34-.29ZM67.51,119l2.78-.52,1.87-7.82-6,.32ZM60.3,79.17c-11,0-11.53,16.75.19,16.75C71.2,95.92,71.27,79.17,60.3,79.17Zm-4.77,43.38c0,9.61-6.41,15.25-10.22,18.88l-.46-36.74C53.33,105.35,55.53,112.62,55.53,122.55Z"/></svg>