<svg id="Слой_1" data-name="Слой 1" xmlns="http://www.w3.org/2000/svg" viewBox="0 0 150 190"><defs><style>.cls-1{fill-rule:evenodd;}</style></defs><title>Монтажная область 43</title><path class="cls-1" d="M129.44,153.72c5.5.72,6.78,6.74-2.8,9.38-11.33,3.14-36.89,3.46-54.37-.15-10.94-2.26-11.52-9.66-4.08-11.89,3.53-1.06,9.73-1.69,8.44-3.46H40.2s0-8.71-.07-15.89c16.43,4.39,48.19,4.51,64.36,0,.06.7.08,2.73.09,5.11,11.92.61,25,2.35,25,6,0,3.34-2.21,4.87-4.4,5.59C121.75,149.54,122.89,152.87,129.44,153.72Zm-43.5-6.13c-1.13,6.87-13.52,5.83-13.52,8.71,0,2.55,7.61,3.6,21.67,3.6l.09-12.31Zm-48-57.33c-1-2.14-.7-5.08,1.88-6.07,0-4.65,0-10.55,0-11.81C39.78,59.22,105,60,105,72.14c0,1.28,0,7.36-.06,12.28,2.35,1.18,2.53,3.93,1,6.09C89.66,97.48,54.05,97.14,37.94,90.26Zm8.62-14.41c0,7.32,51.9,7.67,51.9-.13C98.46,68.59,46.56,68.55,46.56,75.85Zm-6.5,43.82c-.06-9.84-.13-14.67-.18-24.19,16.48,6.35,48.83,6.58,65,0-.08,9.61-.18,14.56-.27,24.46,2.63,1.22,2.93,4.39,1.46,6.74-16,5.14-50.64,5-67.17.15C37,124.51,37,120.71,40.06,119.67Z"/></svg>