<svg id="Слой_1" data-name="Слой 1" xmlns="http://www.w3.org/2000/svg" viewBox="0 0 150 190"><defs><style>.cls-1{fill-rule:evenodd;}</style></defs><title>Монтажная область 42</title><path class="cls-1" d="M98.29,138.55c.18,5.67-3.88,8.44-11.15,8.55s-18.52-.27-25.45-.16-9.75-3.82-9.89-9.42c-.43-17.72.2-61,.23-64.69,0-6.35,2.52-9.4,8-9.49,4.42-.07,23.79-.24,29.46-.2,6.46,0,8.76,4.25,8.85,10.12C98.4,76.51,97.76,121.45,98.29,138.55Zm-22.83,4.13c5.59-.09,5.3-9-.54-8.93S68.84,142.78,75.46,142.68ZM58,80.3l.24,48.94,33.11-.09L92.68,80Z"/></svg>