<svg id="Слой_1" data-name="Слой 1" xmlns="http://www.w3.org/2000/svg" viewBox="0 0 150 190"><defs><style>.cls-1{fill-rule:evenodd;}</style></defs><title>Монтажная область 33</title><path class="cls-1" d="M102.37,89.09c0-11,10.31-7.63,9.41-2.49-2.7.9-2,3.44.35,3.44,2.92,0,3.53-2,3.53-5.13,0-5.91-5.78-7.5-8.57-7.5H42.91c-2.79,0-8.57,1.59-8.57,7.5,0,3.17.61,5.13,3.53,5.13,2.33,0,3.05-2.54.35-3.44-.9-5.14,9.41-8.46,9.41,2.49,0,12.16-21.63,13.37-21.64-4.64C26,73,37.39,69.9,42.7,69.9h64.6c5.31,0,16.72,3,16.71,14.55C124,102.46,102.37,101.25,102.37,89.09Zm-4.3-6.69.61,15.95-46.51-.1L51.65,82Zm-50.64,20h55.91s.81,9.9-6.66,11.22l3,33.82-8.72,0-1.35-33.71H84.91l.37,33.74-7,0-.14-33.78H73.07l-.37,33.81-7.12,0,.33-33.85H60.8l-1.29,33.88-9.71,0,3-34.27C46.31,111.54,47.43,102.4,47.43,102.4Z"/></svg>