<svg id="Слой_1" data-name="Слой 1" xmlns="http://www.w3.org/2000/svg" viewBox="0 0 150 190"><defs><style>.cls-1{fill-rule:evenodd;}</style></defs><title>Монтажная область 4</title><path class="cls-1" d="M106.19,58C92.8,66.83,73.84,87.75,73.84,87.75s-15.32-19-30-26.22c3.61-2.93,11.64-4.32,16-3.08-1.57-2.82-9.17-10.85-16-18.48,8.38.94,17.33,3.29,21.58,6.17,0-12.59,2.89-26.73,8.38-42.26C79.83,15.51,83,33.41,83,47.45c4.22-3.57,11-7.43,21.47-8.61A123.51,123.51,0,0,0,91.38,57.52C94.85,57,103.42,55.79,106.19,58ZM55.54,110.23l-.21,4.93-8.41,7.75c-2.65-3.63-3.19-14.93-.65-20.68Zm13.38,20.06,0,3.4-12.52,7.95c-3-2.5-6.53-6-8.09-11.52l9.28-10.24Zm15.32,15.59c-6,2-16.92,1.11-22.25-.74l12.19-9.56ZM79.3,130.69l10.31-10.4,9.16,10.5c-1.64,5.93-5.23,10.57-8.79,12.36l-10.56-9.3Zm7.64-47.44C91.55,85,95.48,89.94,98,96.57l-9.37,10.48-11-10.79.14-4ZM49.29,94.45C51.2,89.09,55.11,84.64,59.53,83l11,9.12L70,96.78l-10.8,9.15Zm36.35,17.78.13,4.3L73.65,128,61.47,116.44l.05-4.85L74.21,100.8Zm6.58-.75,8.11-7.65c3.26,6.87,2.44,13.52-.3,19.48l-7.67-7Z"/></svg>