<svg id="Слой_1" data-name="Слой 1" xmlns="http://www.w3.org/2000/svg" viewBox="0 0 150 190"><defs><style>.cls-1{fill-rule:evenodd;}</style></defs><title>Монтажная область 8</title><path class="cls-1" d="M129.76,86.94c-8.19,0-23.72-.16-29.7-.16-6.69,0-11,2.42-12.74,6.7l-2.9.08c0-8.12,6.71-13.06,12.2-12.58,1.75.15,9.17-1,12-2.37a26.58,26.58,0,0,1,18.67-1.27C133.94,79.27,134.59,86.94,129.76,86.94ZM118.74,71c-13.57,0-42.63-.24-52.55-.24S50.83,73.18,46.61,81l-3,.11A18,18,0,0,1,63.13,63c2.9.22,15.34-1.26,19.81-3.54,10.29-5.23,21-6.67,31.65-3.62C125.58,59,126.74,71,118.74,71ZM83.26,138.87l3.61-1.39A70.12,70.12,0,0,1,79.8,117a81.76,81.76,0,0,0,2.45-19.53l23.18.35A83.37,83.37,0,0,0,116,138.25l7.74-.08.22,8.65L17.09,147l.6-7.76,8-.08C34,123.46,39.94,104.62,39.94,85.34l28.88.44C68.82,103.59,73.75,123.23,83.26,138.87ZM59.71,103.29l-12.39,0,1.1,17.58,5.62.94,1,13,8.77-18.36-6.09-1.94Z"/></svg>