<svg id="Слой_1" data-name="Слой 1" xmlns="http://www.w3.org/2000/svg" viewBox="0 0 150 190"><defs><style>.cls-1{fill-rule:evenodd;}</style></defs><title>Монтажная область 42</title><path class="cls-1" d="M111.38,133.83l14.82.15,11,13.5-25.38-.06Zm-18-20.51,16.19.11,11.22,13.84-27-.06ZM76.62,93.55l16.94.19L104.32,107H76.82ZM73,68.34,88.31,87.26,58.41,88ZM70.41,107H44.31L54.47,93.3l16.37.18Zm-15.5,20.1-25.44-.06L39.92,113l15.46.1ZM36.68,147.24l-22.13-.05L25.08,133l12,.12ZM71,133.44l-1,13.88-26.75-.06.22-14.1Zm-10-20.35,26,.18-.46,13.92-25.11-.06Zm44,20.68-.42,13.64-27.36-.07.21-13.84Z"/></svg>