<svg id="Слой_1" data-name="Слой 1" xmlns="http://www.w3.org/2000/svg" viewBox="0 0 150 190"><defs><style>.cls-1{fill-rule:evenodd;}</style></defs><title>Монтажная область 4</title><path class="cls-1" d="M97.14,100.13,100,94c13.72.62,19.43-21.31,4.1-26.15C90.67,63.62,82.36,79,88.78,88.11L100,77.91l3.08,3.72L90.56,97l-.71,16.34c12.9-7.14,33.6,2.3,29.53,20.79-5.76,26.14-41.91,17.79-39-5.83l6.28,3.81c1.26,13.55,22.77,17.35,26.4.87,2.74-12.44-11.11-18.83-19.83-14.13l10.55,11.94-4,3.13L85.2,121.43,65.41,121c6.29,12.64-2.2,32.09-20.16,29-26.92-4.57-19.52-42.43,5.38-39l-2.07,6.19c-15.89-1-20.23,23.49-2.47,26.51,12.09,2,17.83-11,13.69-19.51l-11.44,9.25-2.57-4,13.86-15.67-1.22-16.3c-13.17,8.08-34.35-2.77-29.48-22,6.19-24.53,43-15.56,38.6,7.83l-6.09-3.65C61.22,65.93,39,61.52,35.1,77.09,31.84,90,45.85,97.31,54.77,92.15L45.43,80.64l2.89-3.09L65.89,92.41l17-1.54c-8.37-13.6,3.81-35.2,23.2-29.08C129.8,69.27,119.46,104.44,97.14,100.13Zm-17.33,2.34c-5.19,0-5.44,7.85.09,7.85C85,110.32,85,102.47,79.81,102.47Z"/></svg>