<svg id="Слой_1" data-name="Слой 1" xmlns="http://www.w3.org/2000/svg" viewBox="0 0 150 190"><defs><style>.cls-1{fill-rule:evenodd;}</style></defs><title>Монтажная область 15</title><path class="cls-1" d="M103.77,147.5c-13,0-29.8-.09-40.65-.09-8,0-13.09-4.39-15.23-10H40.63c-19.52,0-21.7-26.16-6-31.83C34.55,92.47,43,79.22,60.22,79.22c9.62,0,16.66,4.11,21,10,.49,0,1,0,1.48,0,12.55,0,20.72,7,24.24,15.87C132.37,107.68,132.68,147.5,103.77,147.5Zm-1.06-35.24c-1.47-8.49-8-16.09-19.36-16.09-14.87,0-20.52,13.73-18.16,24.79-15.26,0-14.46,20.1-1.11,20.1,9.38,0,28.59-.32,39.88-.32C123.69,140.74,123.85,110.31,102.71,112.26Zm-60.16,36.6c3.5,5.77,6.09,13,5.6,18-.93,9.56-16,7.91-15.21-1.51C33.38,160.27,37.62,153.64,42.55,148.86Zm21.52,12.55c3.51,5.77,6.09,13,5.6,18-.92,9.56-16,7.91-15.21-1.52C54.9,172.83,59.14,166.19,64.07,161.41Zm30.68-7.75c3.51,5.77,6.1,13,5.61,18-.93,9.56-16,7.91-15.22-1.51C85.59,165.07,89.82,158.44,94.75,153.66Z"/></svg>