<svg id="Слой_1" data-name="Слой 1" xmlns="http://www.w3.org/2000/svg" viewBox="0 0 150 190"><defs><style>.cls-1{fill-rule:evenodd;}</style></defs><title>Монтажная область 11</title><path class="cls-1" d="M111.52,89.79c7.2,24.31-9.17,32.62-9.17,32.62l-1-6.28L95.73,119v11.88l10.3-.59,4.62,4.13-5.74,7-1.26-5.43L92.33,139l-.07-4-7.14-3.87-1.84-6L79,127.34l-.18,14.15,4.82-1.31,5.37,7.3-22.61.93,2.92-4.34,4.6-1.25-.22-3.89-5.52-.14-1.69-5.18L39,147.41l3.43-8-9.74-.64L48,126.65a39.75,39.75,0,0,1-14.62-4.57l45.8-35.92-3.59-5L57,80.84s.52-9.29,15.37-10.64c4.44-11.36,23.69-14.16,32.1,0l-3,2.08,15.91,15.65ZM81.65,101.44l-1.51,8.88,3,.17,6-9.52Zm9.66-16.09-1.13,8.87,2.17,1.1,6.28-9.6ZM95,100.6l-1.48,7.94,2.63.52,5.48-8.88Z"/></svg>