<svg id="Слой_1" data-name="Слой 1" xmlns="http://www.w3.org/2000/svg" viewBox="0 0 150 190"><defs><style>.cls-1{fill-rule:evenodd;}</style></defs><title>Монтажная область 43</title><path class="cls-1" d="M92.49,147.39,59.22,146.3l.46-6.58c-13.93-4.94-25-17-25-36.09,10.14,0,66.52-.91,80.64-.91,0,18.75-10.18,30.79-23.3,36.22ZM105.25,96.9a5.19,5.19,0,0,0-5.42-5.39h-.41l-.6-.82a6.06,6.06,0,0,0,.55-2.62,5.12,5.12,0,0,0-2.25-4.47l2.19-4.49a9.79,9.79,0,0,1,5,8.5,9.8,9.8,0,0,1,6,9.17c0,.4,0,3.16,0,3.16h-5S105.25,97,105.25,96.9ZM83.71,99.5l9.76-42.72L100,58,89.07,99.63Zm-8.9-.38,3.34-23.49a5.72,5.72,0,0,0-3.33-1,5.1,5.1,0,0,0-5.2,4l-.7.12a5.38,5.38,0,0,0-4.28-2,5.2,5.2,0,0,0-5.42,5.4c0,.15,0,.29,0,.44l-.91.6a5.91,5.91,0,0,0-2.52-.56,5.19,5.19,0,0,0-5.42,5.4A6.13,6.13,0,0,0,51.09,91l-.35.55a7.34,7.34,0,0,0-.81,0,5.19,5.19,0,0,0-5.42,5.39c0,.07,0,3,0,3H39.47V96.86a9.79,9.79,0,0,1,6-9.24,9.8,9.8,0,0,1,9.76-9.76,9.81,9.81,0,0,1,9.26-6,10.7,10.7,0,0,1,3.33.53,10,10,0,0,1,7-2.76,10.48,10.48,0,0,1,4.07.8l2.74-19.33,6.52.6L79.89,99.36Z"/></svg>