<svg id="Слой_1" data-name="Слой 1" xmlns="http://www.w3.org/2000/svg" viewBox="0 0 150 190"><defs><style>.cls-1{fill-rule:evenodd;}</style></defs><title>Монтажная область 91 копия 2</title><path class="cls-1" d="M112.4,104.51c-5.65,3.71-13.11,9.79-36.69,26.85C56,145.62,31.52,120.31,44.94,101.65c8.67-12,24.87-32,28.07-36.25s8-5.93,12.28-1.63c2.11,2.11,24.89,24.75,28.27,28.13S118.05,100.79,112.4,104.51Zm-61.07-1.1c-11.5,14.61,6.77,32.84,22,21.93l-21.82-22.2ZM72.08,89.05l-12,13.76,18,17.54,28-21.89-10.9-9.9Zm-33.8,52.12c-7.1-.87-5.54-10.94,1.12-10.12S44.76,142,38.28,141.17Zm6.12,8.88c6.64.81,5.36,10.91-1.12,10.12C36.18,159.3,37.74,149.23,44.4,150.05Zm7.79-11.4c4.53.56,3.65,7.46-.77,6.91C46.57,145,47.64,138.09,52.19,138.65Z"/></svg>