<svg id="Слой_1" data-name="Слой 1" xmlns="http://www.w3.org/2000/svg" viewBox="0 0 150 190"><defs><style>.cls-1{fill-rule:evenodd;}</style></defs><title>Монтажная область 61</title><path class="cls-1" d="M81.72,65.45c4.33-3.7,10.39-5.88,18.07-5.26,21.28,1.74,25.66,24.51,16.06,37Zm23.17,2.79c-6.49,0-6.81,9.89.11,9.89C111.32,78.13,111.36,68.24,104.89,68.24Zm-8.42,37a33.38,33.38,0,0,1-3.78-.54l3.23-5.86-3.1-1.31L51.21,142.39l-4.46-3.79,32-41.92A21.66,21.66,0,0,1,74.08,85L26.23,100.84l-2.58-5.15L76.87,71.42a21.75,21.75,0,0,1,2.06-3.08l32.7,33A22.18,22.18,0,0,1,96.47,105.19Zm11,3.12L84.47,156l-5.19-2.56L94.86,110Z"/></svg>