<svg id="Слой_1" data-name="Слой 1" xmlns="http://www.w3.org/2000/svg" viewBox="0 0 150 190"><defs><style>.cls-1{fill-rule:evenodd;}</style></defs><title>Монтажная область 8</title><path class="cls-1" d="M44.12,100.12C47.69,76.48,74,67.89,91.73,77.46l1-.32-.45.58C99.11,81.6,104.66,88.26,107,97.88,115.43,90.51,118.43,85,118.43,85L98.08,75.5C146.83,61.76,148.9,92,85.41,122.26,12.81,156.93-5.87,131.84,44.12,100.12Zm0,10.84c-18.09,13.2-15.26,21.22,6.59,15.39A30.44,30.44,0,0,1,44.07,111Zm61.36,10.88C98.67,136.19,80.9,141,66.15,136.49A212.28,212.28,0,0,0,105.43,121.84Z"/></svg>