<svg id="Слой_1" data-name="Слой 1" xmlns="http://www.w3.org/2000/svg" viewBox="0 0 150 190"><defs><style>.cls-1{fill-rule:evenodd;}</style></defs><title>Монтажная область 84</title><path class="cls-1" d="M95.26,148.61c-7.07-.1-10.16-5-11.94-12.23-1.5-6.11-3.69-13.37-4.5-16L83.49,115l1.45,5.46,4.39,3.16A13.36,13.36,0,0,1,96,122.11C113.48,122.35,113.88,148.87,95.26,148.61ZM96,128.94c-8.42-.12-8.58,12.71-.37,12.83C104.62,141.9,104.43,129.06,96,128.94ZM82.66,111.65l-9.74,7.7s-4.51,14-6.08,19.36-5.6,9.39-12.49,9.3c-18.69-.27-17.4-26.76.15-26.51a13.37,13.37,0,0,1,7,1.92l4.8-2.77,2.81-9.22,0,0s-12.18-28.74-15.65-37C50.08,66.55,57,57.79,57,57.79l19.19,37.1L96.63,58.43s6.77,8.51,3,16.73S82.66,111.65,82.66,111.65ZM54.29,128.33c-8.48-.12-9.11,12.7-.07,12.83C62.47,141.28,62.74,128.45,54.29,128.33Zm21.12-25a2.89,2.89,0,1,0,.77,5.73C79.87,108.59,79.19,102.85,75.41,103.31Z"/></svg>