<svg id="Слой_1" data-name="Слой 1" xmlns="http://www.w3.org/2000/svg" viewBox="0 0 150 190"><defs><style>.cls-1{fill-rule:evenodd;}</style></defs><title>Монтажная область 42</title><path class="cls-1" d="M105,85.16,75.33,79.42l0,4.58C85.67,87.83,93.9,97.33,93.9,106a21.56,21.56,0,0,1-.73,5.63L79.46,101.33a29.77,29.77,0,0,1,.93,6.84l10.94,8a24.08,24.08,0,0,1-3.14,4.4l-9-6.77c-.66,1.44-1.51,2.8-2.39,4.47l7.87,5.77c-1.39,1.22-2.85,2.37-4.31,3.5l-5.69-4.38a39.41,39.41,0,0,0-1.4,5.44l2.93,2.17c-5.22,4.17-9.55,8.62-9.55,15.63,0,15.8,17.79,15.27,17.79,5.2,0-4.75-3.91-6.29-7.34-4.33l3.38,4.12c-1.8,3.62-8.65,3.4-8.65-3.55,0-9.8,19-11.74,18.64,5.47-.39,17.79-34.65,19.2-34.65-10.82,0-9.66,3.3-15.37,3.2-23.65l-5.52,4.26c-3.3-4.8-5.16-13.51-4.28-19.33l6.66.92C50.54,88,43.05,62.59,78.63,57.66c3.46,8.06,9.41,15.92,23.76,19.15L104.9,75l2.82,1.53Z"/></svg>