<svg id="Слой_1" data-name="Слой 1" xmlns="http://www.w3.org/2000/svg" viewBox="0 0 150 190"><defs><style>.cls-1{fill-rule:evenodd;}</style></defs><title>Монтажная область 53</title><path class="cls-1" d="M98.44,140.13,96.78,148l-13.3-.1-8.37,6.56-8.61-6.68-11.68-.09-1.87-7c-41-24.72-24.13-30.13-21.45-32.82,3.55-3.58-1.39-9.88,2.14-15.14s6.61-2.59,9.52-5.74.43-5.93,6.32-9.5,8.61,1.23,13.42.06c4.19-1,5.56-7,12.36-7s9.46,5.6,11.93,6.76c3.33,1.58,6.66-3,12.5.34s2.56,7.85,6.37,9.85,6.36-.66,10,4-1,12,1.32,14.52S139.76,113.9,98.44,140.13ZM41.87,103l-3.72,5.42c10.18,5.14,17.36,11.34,23.25,22l2.11.3C58.15,116.78,51.73,109,41.87,103Zm14-13.16-5.48,3.06c7,10,14.91,25.18,17.46,42.34l2.15.6C68.91,122.64,65.23,101.93,55.83,89.85Zm15.65-6.13s2,39,2.7,56.94l1.74.29c.91-18.65,3.16-57.51,3.16-57.51Zm22.08,6.13c-9.41,12.08-13.09,32.79-14.13,46l2.15-.6C84.13,118.09,92.05,102.94,99,92.91Zm14,13.16c-9.85,6-16.28,13.77-21.63,27.7l2.11-.3c5.89-10.64,13.07-16.84,23.25-22Z"/></svg>