<svg id="Слой_1" data-name="Слой 1" xmlns="http://www.w3.org/2000/svg" viewBox="0 0 150 190"><defs><style>.cls-1{fill-rule:evenodd;}</style></defs><title>Монтажная область 61</title><path class="cls-1" d="M105.21,121.69c-14.68,1-17.21,11-18.85,25.79l-6.67-.11,1.06-12.6-5.62-.9-1.51,13.4-5.85-.09.78-10.63-5.66-.9-1.36,11.43L54.19,147c1.4-17.56.09-26.52-12.69-31-6-20,4.15-51.1,38.23-46.91S114.1,103.74,105.21,121.69ZM62.79,96.5C50,94.93,47.05,114.21,60.63,115.88,73,117.41,75.5,98.06,62.79,96.5Zm25.91,7.18c-8.93-1.1-11,12.39-1.52,13.56C95.87,118.3,97.58,104.77,88.7,103.68Z"/></svg>