<svg id="Слой_1" data-name="Слой 1" xmlns="http://www.w3.org/2000/svg" viewBox="0 0 150 190"><defs><style>.cls-1{fill-rule:evenodd;}</style></defs><title>Монтажная область 13</title><path class="cls-1" d="M93.28,147.32c-13.53,0-31.07-.09-42.4-.09-20.35,0-22.62-27.28-6.25-33.19-.09-13.7,8.74-27.52,26.68-27.52,13.09,0,21.61,7.3,25.29,16.55C123.11,105.79,123.43,147.32,93.28,147.32Zm-1.16-37.14c-1.56-9-8.54-17.1-20.57-17.1-15.81,0-21.81,14.59-19.31,26.35C36,119.43,37.59,141,51.78,141c10,0,30.07-.34,42.07-.34C114.82,140.65,114.6,108.11,92.12,110.18Zm-53.63,56.6,9.94,2.13-2.88-9.42,5.72-1.8,2.59,10,6.66-7.54L64.86,164l-6.94,6.92,9.64,2.74-1.23,5.64-9.84-2.61L60,186.35l-5.56,1.88-3.17-10.62-6.33,8.5-4.42-3.85,7.33-7.74-10.54-2.18Zm35-9.88,3.8-4.4L81.94,158l.75-7,5.16,1-2.37,6.71,6.23-2.8,1.65,5.13-6.93,1.23,5.67,4.2-3.55,4L84,165.11l-.74,6.77-5.44-1.23,2.49-6.41-6.23,2.92-1.51-5.35,6.58-1.15ZM92,174.21l6.28,2.29-3-6.06,5.49-1.91,1.23,7.09,4.14-5.66,3.95,3.48-5.41,4.62,6.79.69L110.35,184l-6.62-2.4,2.81,6.47-5.09,1.22-1.18-6.56-4,5.53-4.1-3.79,5.36-4.3-6.86-.59Z"/></svg>