<svg id="Слой_1" data-name="Слой 1" xmlns="http://www.w3.org/2000/svg" viewBox="0 0 150 190"><defs><style>.cls-1{fill-rule:evenodd;}</style></defs><title>Монтажная область 31</title><path class="cls-1" d="M75.17,148.68c-27.85,0-36.37-26-27.43-42.6l-3.94-2.29-7.92,3.84-2.1-3.41,4.15-3.85-6.4-3.72L33,92l19.45,7.85a24.77,24.77,0,0,1,9.45-5.69l2.18,4.61c-20.9,8.78-18.4,43.94,10.9,43.94,26.31,0,30.13-33.95,10.77-43.46l-.5-5c8.59-8.18,5.08-26.31-10.9-26.31-9.34,0-14.64,6.13-15.66,12.88L69.34,76.7l2.2,11.79-26.65,0-.38-2.17,8-3.1c0-9.13,5.67-18.29,16.51-20.57l14.28-15L96.9,53.94,93.54,73.36a22.76,22.76,0,0,1-1.67,22.43A25.76,25.76,0,0,1,97.53,101l4.49-1L107,90.33l3.58,1.08-1.28,7,7.94-1.74,1.27,4.4-16.9,6.77C108.64,125,99.71,148.68,75.17,148.68Z"/></svg>