<svg id="Слой_1" data-name="Слой 1" xmlns="http://www.w3.org/2000/svg" viewBox="0 0 150 190"><defs><style>.cls-1{fill-rule:evenodd;}</style></defs><title>Монтажная область 39</title><path class="cls-1" d="M83.08,136.19c0,8.15.43,14.91,4.6,18.05,2.29,1.72,6.16.56,8.58-2.7a4.76,4.76,0,0,1,2.17,5c-1.19,5.73-11.11,7.57-15.78,3.43-5.3-4.71-7.06-12.68-7.65-19.31-.62,6.61-2.44,14.55-7.73,19.25-4.67,4.15-14.55,2.13-15.65-3.37a4.49,4.49,0,0,1,2.17-5c2.42,3.26,6.29,4.42,8.58,2.7,4.2-3.16,4.6-10,4.6-18.18-6.94,19.72-28.62,13.45-28.62-3.52-8.38-2.43-2.09-13.93-14.27-16.42,5.29-6.26,20,.25,20,12.76,0,17.53,17,16.34,18-5.76-8.58-2.87-7.37-16.45,4.37-16.53,4.27,0,14.09,0,17.51,0,11.15-.08,12.56,13.55,4.08,16.33.87,22.31,18,23.56,18,6,0-12.51,14.7-19,20-12.76-12.18,2.49-5.89,14-14.27,16.42C111.65,149.47,90.07,155.74,83.08,136.19ZM65.46,111.28c-5.09,0-5.34,7.69.08,7.69C70.49,119,70.53,111.28,65.46,111.28Zm19.78.92a2.89,2.89,0,1,0,.07,5.77C89,118,89.05,112.2,85.24,112.2Zm.86-10.84H63.77c-3.4-15.52-1.05-30.8,11-39.62C86.55,70.21,89.63,86,86.1,101.36ZM74.76,56.08C64.43,62.2,59.16,72,57.56,83.42L45.68,75.76,74.54,42.53l28.89,32.68L91.73,83C89.8,71.52,84.33,61.72,74.76,56.08Z"/></svg>