<svg id="Слой_1" data-name="Слой 1" xmlns="http://www.w3.org/2000/svg" viewBox="0 0 150 190"><defs><style>.cls-1{fill-rule:evenodd;}</style></defs><title>Монтажная область 41</title><path class="cls-1" d="M106.91,118.27l1.49,5-.53,0c-7.3-.18-7.63,11.24-.16,11.43.31,0,.6,0,.88,0l-.63,5a5.47,5.47,0,0,0-5.73,5.34l-5,.11C97,138.37,87.19,137.6,86,144.2l-5.06,1.47a.76.76,0,0,0,0-.15c.19-7.32-10.67-8.11-11.38-.72l-5.1,1.93a6.58,6.58,0,0,0,.14-1.21c.18-7.26-10.48-8.1-11.36-.92l-5,0a5.45,5.45,0,0,0-4.57-4.82l.69-5.31c5.56-1.67,5.39-11-1.83-11.17a7.54,7.54,0,0,0-1,.06l1.76-5c6.59-.75,6.85-11.19-.79-11.38a6.14,6.14,0,0,0-1.07.07l2.26-5.09c6.2-1.12,6.29-11.13-1.19-11.32a5.56,5.56,0,0,0-.92,0l2.09-4.34c6.17-1.15,6.24-11.12-1.23-11.31a6.21,6.21,0,0,0-1.59.17l1.48-5.28c2.9.35,6.08-1.25,6.44-4.89l5-.4c.11,7,11.23,7.26,11.41-.12,0-.11,0-.22,0-.33l5,1.51c1.16,6,11.14,5.8,11.32-1.18,0-.06,0-.12,0-.18l4.94.65c.47,6.68,11.23,6.78,11.41-.47a6.44,6.44,0,0,0-.08-1.18l5,1.31a5.3,5.3,0,0,0,4.82,5.27L108,75h-.15c-7-.17-7.58,10.28-1.06,11.33l1.49,4.3c-.13,0-.24,0-.37,0-7.3-.18-7.63,11.24-.16,11.42.21,0,.42,0,.62,0l.82,5.08a7.36,7.36,0,0,0-1.28-.15C100.84,106.75,100.28,117.31,106.91,118.27ZM55.52,78.15l-.67,53.1,39.2.11,0-53.36Zm4.11,47.58.3-42.3,29.23-.23-.19,43Z"/></svg>