<svg id="Слой_1" data-name="Слой 1" xmlns="http://www.w3.org/2000/svg" viewBox="0 0 150 190"><defs><style>.cls-1{fill-rule:evenodd;}</style></defs><title>Монтажная область 34</title><path class="cls-1" d="M88.18,148.9c-8.36,3.7-13.49-18.88-21.89-21.13s-25,14.53-30.73,7,12.89-21.92,12.12-28.92-18.93-18.71-15-25.49,23,6.15,30.57,2.19S76,58.85,83.57,60.87s1.79,22.31,6.1,29.62,28.19,2.22,28.19,12.72-20.26,8.43-24.81,15.55S96.54,145.2,88.18,148.9ZM45.59,85.53A3.23,3.23,0,1,0,45.66,92C49.82,92,49.85,85.53,45.59,85.53Zm1,36.15a3.24,3.24,0,1,0,.07,6.47C50.86,128.15,50.89,121.68,46.63,121.68Zm10-30.15c-5.68,0-6,8.6.1,8.6C62.22,100.13,62.26,91.53,56.59,91.53Zm.19,20.52c-5.69,0-6,8.6.1,8.6C62.41,120.65,62.44,112.05,56.78,112.05Zm46.47-4.68c4.16,0,4.18-6.46-.07-6.46A3.23,3.23,0,1,0,103.25,107.37ZM76.75,92.46c5.53,0,5.57-8.6-.1-8.6S70.69,92.46,76.75,92.46Zm3-20.88A3.23,3.23,0,1,0,79.81,78C84,78,84,71.58,79.74,71.58ZM80,118.12c-5.69,0-6,8.6.1,8.6C85.64,126.72,85.67,118.12,80,118.12Zm4.12,14.31a3.23,3.23,0,1,0,.07,6.46C88.36,138.89,88.39,132.43,84.13,132.43ZM90.23,100c-5.68,0-6,8.6.1,8.6C95.86,108.55,95.9,100,90.23,100Z"/></svg>