<svg id="Слой_1" data-name="Слой 1" xmlns="http://www.w3.org/2000/svg" viewBox="0 0 150 190"><defs><style>.cls-1{fill-rule:evenodd;}</style></defs><title>Монтажная область 42</title><path class="cls-1" d="M120.55,116.82c-1.85-.31-5.21-.9-9.28-1.62l1.56-9.64,9.08.73C129.72,107,128.7,118.19,120.55,116.82ZM102.38,78.16l-7.63-6.23c2.06-3,3.74-5.44,4.67-6.78,4.48-6.43,13.7.07,8.44,6.44C106.75,72.94,104.78,75.29,102.38,78.16ZM75.93,138.92C29.12,138.92,31.24,72,75.18,72,119,72,118.68,138.92,75.93,138.92Zm13.13-10.38a24.79,24.79,0,0,0,11.07-15.31l-11.3-2a14.15,14.15,0,0,1-4.84,6.7ZM75.69,132a29.15,29.15,0,0,0,5.15-.48l-4-11c-.52,0-1,.08-1.59.08a18.19,18.19,0,0,1-6.06-1l-6.74,9.55A30.25,30.25,0,0,0,75.69,132Zm4.78-29.62-8.92-2.44-2.2,8.72L78,111ZM55.58,124.25c2.5-3,5.07-6.06,7.45-8.9a15.07,15.07,0,0,1-3.25-8l-11.35-1A26.35,26.35,0,0,0,55.58,124.25Zm5.17-41.51A25.6,25.6,0,0,0,49.46,98l11.22,2a14.6,14.6,0,0,1,4.92-6.72ZM75.09,79a30.58,30.58,0,0,0-6.51.69l4,10.84a16.82,16.82,0,0,1,2.4-.18,15.91,15.91,0,0,1,6.33,1.24l6.6-9.6A27,27,0,0,0,75.09,79Zm12,17.4a16,16,0,0,1,2.63,7.38l11.38.89a27.74,27.74,0,0,0-6.41-17.29ZM51.7,63.11c-2.61-5.63,6.82-10,9.29-3.88.56,1.4,1.64,4.26,3,7.91l-8.53,4.1ZM48,133.32l7.78,5.31c-2.57,3.64-4.6,6.51-5.52,7.83-3.58,5.07-12.1-.9-8-6.11C43.24,139.1,45.34,136.54,48,133.32ZM26.92,104.37c-6.18-.56-5.27-10.93,1.29-10,1.67.24,5.29.84,9.81,1.61l-.7,9.33Zm70.61,42c3.33,7.09-6.91,11.83-9.8,4.09-.55-1.49-1.48-4-2.61-7.1l9.3-3.53C95.8,142.67,96.9,145,97.53,146.33Z"/></svg>