<svg id="Слой_1" data-name="Слой 1" xmlns="http://www.w3.org/2000/svg" viewBox="0 0 150 190"><defs><style>.cls-1{fill-rule:evenodd;}</style></defs><title>Монтажная область 48</title><path class="cls-1" d="M78.38,146c-22.72-3.71-26-23.43-26-23.43-3.39,1.15-2.33,12.2,1.47,19.38,5,9.54-11.34,16.79-16.09,7.66C32.13,138.71,27.28,104,50.11,104c9.87,0,15.19,9.79,19.5,9.79s7.44-4.71,7.44-13.46c0-12.32-13.88-16.45-13.88-38.07l5.43-.55C70.3,85.08,84.27,88,84.27,100.37a27.71,27.71,0,0,1-.7,6.44c11.63,3.35,13.35-7.6,25.44-7.59-2.79-12.43-14.5-18.93-25.66-14.58-4.93-4.78-9.11-13.45-10-23.42l5.64-.57a25.38,25.38,0,0,0,6.65,16.63c13.33-4.78,31.33,7.89,31.33,29.08C116.92,135.72,100.4,149.57,78.38,146Zm-32.79-4.28a3.39,3.39,0,1,0,.08,6.77C50,148.46,50.05,141.69,45.59,141.69Zm35.76-18.51a3.36,3.36,0,1,0,.08,6.71C85.75,129.89,85.78,123.18,81.35,123.18ZM99,122.49c6.84,0,6.33-9.34.42-9.34S93.23,122.49,99,122.49Zm-6.85,12.76c4.31,0,4.34-6.71-.08-6.71A3.36,3.36,0,1,0,92.14,135.25Z"/></svg>