<svg id="Слой_1" data-name="Слой 1" xmlns="http://www.w3.org/2000/svg" viewBox="0 0 150 190"><defs><style>.cls-1{fill-rule:evenodd;}</style></defs><title>Монтажная область 1</title><path class="cls-1" d="M79,80.14,71.78,63.58c22.82-7.33,40.53,3.66,40.53,26.69H78.1Zm18.63,34.33c-1.57,0-3.64,0-6,0L71.84,95.44l40.69,0C112.53,106.74,105.42,114.47,97.58,114.47Zm-.06,6.77c17.07,0,17.5,26.29,1.19,26.29-13.27,0-16.77-12.36-12.27-20.13l-7-7-7.26,7.27c4.29,7.78.93,19.85-10.12,19.85-19.36,0-17.94-26.29-1.19-26.29a14,14,0,0,1,5.11.93l7.75-7.46h0c-5.91.07-11.38.12-14.72.12-11.07,0-15.2-9.3-15.2-19.38H54.44L39.22,80.23c-5.7-5.72,3.9-11.13,9.19-8.54l.28,7.56,43.62,43A13.51,13.51,0,0,1,97.52,121.24ZM61.41,139.87c6.8,0,6.62-11-.49-11S53.35,139.87,61.41,139.87Zm36.65,0c6.8,0,6.62-11-.49-11S90,139.87,98.06,139.87Z"/></svg>