<svg id="Слой_1" data-name="Слой 1" xmlns="http://www.w3.org/2000/svg" viewBox="0 0 150 190"><defs><style>.cls-1{fill-rule:evenodd;}</style></defs><title>Монтажная область 12</title><path class="cls-1" d="M128.9,149.51c-19.38-2.62-24.19-7.85-24.19-7.85l1.38-4.33-2-1.59s-8.78,4.65-8.36,14.4l-3.35.8a44.54,44.54,0,0,1-16.93-15.67l-3.35.74.83,5.9a58.12,58.12,0,0,1-15.6,8.74l-3.08-2.15c2.82-5.76,2.23-14.37,2.23-14.37l-3-.84-4,7.69s-15,5.29-28,6.33l-2.27-4.39C41.59,132.93,43.71,94,43.71,94h0c.21-10.15,19.05-14.67,36.71-14,1.79,2.07,7.62,8.68,9.31,10.64,11.71,1.81,21,6.17,21,13h0s.87,31.19,20,41.41ZM85.45,95.33c-1.7-1.62-7.12-8.11-8.08-9.44-12.12-.48-26.44,2-26.44,9.07,0,4.43,6.83,7.71,11.9,9L73.49,93.37l2.62,2.3-7.36,12.82c1.54,1.4,3,2.71,3.53,3.33l3.44,11.07,3.94-11.34a103.77,103.77,0,0,0,13.22-1.68l4,6.47,1.58-8c3.29-1.2,5.44-2.74,5.44-4.72C103.86,99.45,93.43,96.56,85.45,95.33Z"/></svg>