<svg id="Слой_1" data-name="Слой 1" xmlns="http://www.w3.org/2000/svg" viewBox="0 0 150 190"><defs><style>.cls-1{fill-rule:evenodd;}</style></defs><title>Монтажная область 29</title><path class="cls-1" d="M93.58,139.11l-4.85.28v3.07l6.42,6.38-40.3.42,5.78-6.76v-3.08l-4.28-.28L42.6,148.3C12.93,127.38,21.71,60.86,74,60.86s64.22,63.93,34,86.7Zm-36-9.33c8,0,8.31-11.82,0-11.82S49.58,129.78,57.6,129.78ZM83.42,74.57l-18.85.66.12,4.51,19.39.78Zm13.35,31.19c-.18-4.23-3.2-20.23-3.2-20.23l-37.49.19s-2.86,14.27-2.93,20c-.06,4.93,3,6.31,7.16,6.26l31-.36C94.94,111.62,96.94,110,96.77,105.76Zm-3.72,13.68c-6.24,0-6,8.87,0,8.87S99.28,119.44,93.05,119.44Z"/></svg>