<svg id="Слой_1" data-name="Слой 1" xmlns="http://www.w3.org/2000/svg" viewBox="0 0 150 190"><defs><style>.cls-1{fill-rule:evenodd;}</style></defs><title>Монтажная область 62</title><path class="cls-1" d="M108.57,147.1c-4.65,0-60.58-.89-66.54-1-6.79-.14-9.7-4-9.14-10.18.18-2,.86-10.25,1.6-19.29l34-.32.79,5.16,13.18-1.26.11-4,33.47-.32c.53,9.63,1,18.85,1.15,21.39C117.46,143.91,114.34,147.1,108.57,147.1Zm-25.8-39.53-15.46,1.27.38,2.5-32.85,1c.95-11.7,1.88-23.28,1.88-23.28l77.82,1s.54,9.38,1.12,19.79l-33,1Zm7.9-25.15L60,81.4l-1.27,3.74-7-.15s.65-3.28,1.24-5.5c1.13-4.32,2.7-6.77,7.83-6.77,2.44,0,23.53,1,26.58,1,5.52,0,9.3,2.14,10,5.8.38,1.94,1.25,6.51,1.25,6.51l-6.71-.14Z"/></svg>