<svg id="Слой_1" data-name="Слой 1" xmlns="http://www.w3.org/2000/svg" viewBox="0 0 150 190"><defs><style>.cls-1{fill-rule:evenodd;}</style></defs><title>Монтажная область 6</title><path class="cls-1" d="M108.09,98.53l16.9-2,.68,7.38L108.84,105ZM98.44,80.76l9.34-8.85,5.13,5.75L102.37,85.4ZM80.13,72.18l3.56-16.76,7,1.78L86,73.84ZM75.6,135.9c-43,.18-40.06-57.69-2.88-57.85C110.62,77.88,111.83,135.74,75.6,135.9ZM72.82,85.5C44,85.62,42.29,129.14,75,129,102.58,128.88,102.18,85.37,72.82,85.5ZM53.15,62l7.59-2.25L64.81,71.4l-5.75,1.94ZM28.88,78.8,32.62,72,46.67,82.12l-2.81,5.5Zm8.7,31-13,1-.2-8.1,12.7,1Zm10.08,21.54L34.84,143.46,30,136.8,43.8,126.64Zm21.64,12.6L68.6,157l-8.72-.92L63.56,143Zm32.06,8.3-7.45,3.57-7.65-15.24,6.5-2.86Zm17.16-24.65-3.44,6.69-12.35-7.93,3-5.31Z"/></svg>