<svg id="Слой_1" data-name="Слой 1" xmlns="http://www.w3.org/2000/svg" viewBox="0 0 150 190"><defs><style>.cls-1{fill-rule:evenodd;}</style></defs><title>Монтажная область 56</title><path class="cls-1" d="M104.83,89.29c-.59,8.41-1.34,18.95-1.89,26-1,13.28-16.58,16.48-16.58,16.48l-2.83-31.6-8.75,4.37-17.44,9.29L38.68,98.32s4.5-9,15.34-5.48c1.42.46,3.42,1.13,5.7,1.89,10.91-7.66,34.61-24.13,44.82-30,11.15-6.4,25.91-9.06,28.74-4.1s-5.91,16.15-17.2,22.62C113.59,84.7,109.58,86.83,104.83,89.29ZM49.39,65.15s8.76-12.72,22.74-6.08c6,2.84,13,6.32,19,9.38L69.64,80.29Zm17.39,81.28-49.5,1.1-1.1-13.19,51.7-1.1Z"/></svg>