<svg id="Слой_1" data-name="Слой 1" xmlns="http://www.w3.org/2000/svg" xmlns:xlink="http://www.w3.org/1999/xlink" viewBox="0 0 150 190"><defs><style>.cls-1{fill-rule:evenodd;fill:url(#linear-gradient);}</style><linearGradient id="linear-gradient" x1="74.72" y1="72.14" x2="74.72" y2="147.86" gradientUnits="userSpaceOnUse"><stop offset="0" stop-color="#ffb400"/><stop offset="1" stop-color="#ff1e00"/></linearGradient></defs><title>Монтажная область 24</title><path class="cls-1" d="M113.52,132.65l-76.76.57s-1.9-16.34-1.86-18.29c.14-6.38,2.17-10.11,6.42-11.41,1-3.06,2.8-8.15,4.12-11.26C47.51,87.4,51,82.45,60.56,81l3.07-8.71,23-.19,1.76,8.8c8.18,1,12.73,4.75,15.91,12.6,1.28,3.16,2.83,7.55,3.85,10.52,4.31,1.79,6.37,5.75,6.37,11.25C114.54,117.3,113.52,132.65,113.52,132.65Zm-63.35-5.94c10.43,0,10.5-16.31-.18-16.31S38.75,126.71,50.17,126.71Zm47.77-30c-2.92-7.19-5.49-9.27-14.85-9.27H66.4c-11.21,0-12.88,4-14.62,8.09-.83,2-1.89,4.87-2.8,7.46,11.3,0,41.36-.11,51.31,0C99.51,100.79,98.67,98.51,97.94,96.7Zm2.37,15.74c-8,0-8.43,12.23.14,12.23C108.27,124.67,108.32,112.44,100.31,112.44ZM55.57,142.71c0,6.87-18.78,6.87-18.78,0v-5.17l18.78-.64Zm58,0c0,6.87-18,6.87-18,0v-5.6l18,.39Z"/></svg>