<svg id="Слой_1" data-name="Слой 1" xmlns="http://www.w3.org/2000/svg" viewBox="0 0 150 190"><defs><style>.cls-1{fill-rule:evenodd;}</style></defs><title>Монтажная область 6</title><path class="cls-1" d="M78.71,148.66c-65.49,0-60.67-88.19-4-88.19a51.63,51.63,0,0,1,9.35.83c-3,1.64-5.6,3-6.55,3.6C52.74,79.51,52.58,96.32,53.77,103c2,11,11.34,20.31,22.62,22.37a28.37,28.37,0,0,0,5.1.46c12.3,0,24-8.26,32.5-22.51,1-1.64,2.5-4.3,4.13-7.16C123,120.59,109.86,148.66,78.71,148.66Zm-.89-30.19c-8-1.46-15.8-9.14-17.18-16.91C58.75,91,66.58,79.05,81,70.56c1.47-.87,7.08-3.9,12.07-6.59a41.53,41.53,0,0,1,22.41,23.26c-2.61,4.6-5.74,10.08-7.34,12.76C96.78,119.06,82.92,119.4,77.82,118.47Z"/></svg>