<svg id="Слой_1" data-name="Слой 1" xmlns="http://www.w3.org/2000/svg" viewBox="0 0 150 190"><defs><style>.cls-1{fill-rule:evenodd;}</style></defs><title>Монтажная область 23</title><path class="cls-1" d="M76.8,148.26c-50.75,0-55.09-61.92-19.93-68.06l7.55,3.57S47.27,83.71,44.58,95.5c5.56-6,18.56-4.64,18.56-4.64l2,1.39S57.54,103.81,62.85,116c.48-14.4,8.93-21.64,8.93-21.64l2.88-1.53s12.12,8.91,16.45,18.9C94,101.29,82.27,90,82.27,90l1.19-.82s13,2.56,23.29,9.89c-6.64-12.61-22.65-16-22.65-16l6.51-2.54C128,84.63,124.7,148.26,76.8,148.26ZM70.4,87.44A41.82,41.82,0,0,1,72,67.64l8.59,3.9S76,80.6,75.64,87.21Z"/></svg>