<svg id="Слой_1" data-name="Слой 1" xmlns="http://www.w3.org/2000/svg" viewBox="0 0 150 190"><defs><style>.cls-1{fill-rule:evenodd;}</style></defs><title>Монтажная область 36</title><path class="cls-1" d="M103.78,99.59c-3.91,5.22,6.94,36-11.38,50l-5.8-3.77c6.39-40-29.59-38.39-22.83,0l-5.28,3.77C39.84,134.48,49.35,103.38,45.62,99c-7-8.1-8.28-20.22,6.54-35,5.5-5.5,13.58,3,22.18,3s18.44-8.91,24.39-3C112.14,77.41,111.83,88.87,103.78,99.59ZM95.25,71.3c-3.81-3.81-9.49-.48-15.19,1.42a33,33,0,0,1,5.13,7.22l-4.58,1.77c-2.29-3.53-8.09-7.35-12.12-9.12-5-1.83-9.62-4.69-13-1.29-5.45,5.45-8.27,10-8.27,14.44,0,6.9,5.65,10.63,6.31,17,15.87,7.32,23.92-8.84,42.05-.83,0-7.15,6.84-10.2,6.84-16.39C102.4,80.85,100.18,76.23,95.25,71.3Z"/></svg>