<svg id="Слой_1" data-name="Слой 1" xmlns="http://www.w3.org/2000/svg" viewBox="0 0 150 190"><defs><style>.cls-1{fill-rule:evenodd;}</style></defs><title>Монтажная область 27</title><path class="cls-1" d="M95,133.82l-42.61.76c0-4.63-2.73-8.23-7.54-8.23,0,0-.13-40.89-.09-42.85.18-8.09,3.38-11.94,10.31-11.94,5.58,0,28.27-.15,35.43,0,8.16.18,12,4.83,12,12.32v42.41C97.63,126.29,95,129.17,95,133.82Zm-6.29-7.41c5.92,0,5.76-9.45-.43-9.45S81.71,126.41,88.73,126.41Zm-28.18,1.75c8.11,0,7.9-13-.59-13C51.63,115.21,50.92,128.16,60.55,128.16ZM52.1,80.77s-.13,2.66,0,9.38c.17,13.11,6.34,21.6,21.4,21.6S96,104.43,95.83,91.33c-.12-7-.13-9.86-.13-9.86Zm41.49-13L54,68.4,54.83,62h4.54l-5.59-9.62L72.87,37.72,92.8,53.23,87.13,62h5.58ZM72.87,46.05l-10,8.33L67.43,62H79.56l4-7.8ZM61.6,147.27l-9.28-.63-.07-8.07,9.84.15Zm32.86-1.07-8.66.94-.49-9.07,9.46-.15Z"/></svg>