<svg id="Слой_1" data-name="Слой 1" xmlns="http://www.w3.org/2000/svg" viewBox="0 0 150 190"><defs><style>.cls-1{fill-rule:evenodd;}</style></defs><title>Монтажная область 2</title><path class="cls-1" d="M84.4,134.07l.25-6c14-.61,20.81-7.91,20.81-20.24C105.46,92.9,93.1,88,85,89.74,86,86.82,90.17,65,72.29,65,55,65,58.68,82.59,59.33,86,46.41,86,44,97.43,44,102.85c0,7.22,6.26,14.85,19.48,14.85v6.17c-31.91,0-33.19-36.26-11.75-43.35C49.78,67,59.06,57.81,72.23,57.81c12,0,21.64,8.92,20.31,24.79C122.49,87.77,118.5,135.7,84.4,134.07ZM55.9,98.79l1.42-4.28,12.22,6.79.52-17.91,6.64-1.22,1.77,27.2,14.86-9.51,2.49,4.63L79.26,121.36l1.69,26-12.73-.62,1-33.47Z"/></svg>