<svg id="Слой_1" data-name="Слой 1" xmlns="http://www.w3.org/2000/svg" viewBox="0 0 150 190"><defs><style>.cls-1{fill-rule:evenodd;}</style></defs><title>Монтажная область 26</title><path class="cls-1" d="M42.59,83.86c.18-8,3.34-11.74,10.17-11.74,5.51,0,33.67.19,40.73.34,8.06.17,11.8,4.74,11.8,12.12v48l-63.36-1.49S42.55,85.78,42.59,83.86Zm56-1.66-49.75-1s-.6,16-.43,18.88c.25,4.61.69,8.59,7,8.59s30.35-.26,37.42-.26c5,0,5.72-3.09,6.11-7.17C99.22,98.23,98.6,82.2,98.6,82.2Zm-3.43,43.09c6.47,0,6.3-10.32-.47-10.32S87.49,125.29,95.17,125.29ZM55.32,127c8.63,0,8.4-13.76-.63-13.76C45.83,113.25,45.08,127,55.32,127ZM92.4,62.48l.84,6.63-37.88.06.85-6.36,5.94-.05L73.63,38.84l6.88,2.95L71.14,62.68l5.35,0L87.57,40.32l6.2,3.3L85.41,62.55Zm-35.54,80.3c0,6.76-13.73,6.76-13.73,0V136l13.73.28Zm47.47,0c0,6.76-13.73,6.76-13.73,0v-6.36l13.73.68Z"/></svg>