<svg id="Слой_1" data-name="Слой 1" xmlns="http://www.w3.org/2000/svg" viewBox="0 0 150 190"><defs><style>.cls-1{fill-rule:evenodd;}</style></defs><title>Монтажная область 64</title><path class="cls-1" d="M76.39,116.19c-56.36,0-63.6-23.48-27.7-31.3,1.36-11.81,10.21-22.8,26-22.8,15.61,0,24,10.79,25.37,22.48C137,92.05,128.59,116.19,76.39,116.19ZM42.52,96c-4.47,2.54-1.41,8.26,3.35,5.55C50.21,99,47,93.42,42.52,96Zm32.39,14c9.21,0,9.27-12.29-.17-12.29S64.81,110,74.91,110ZM55.1,88.08c8.71,5.3,30.27,5.46,38.61-.42C93.71,62.62,55.1,61.41,55.1,88.08Zm48.65,14.14c5.87,3.34,10.33-4.19,4.32-7.62S97.33,98.56,103.75,102.22Zm-43.94,26L65.44,122A14.38,14.38,0,0,0,83,121.51l5.66,6.11C80.84,134.46,67.86,134.61,59.81,128.2Zm33.74,4.7,5.92,6.4C85.78,151.23,63,151.4,49.08,140L55,133.54C65.67,142.2,83.07,142,93.55,132.9Z"/></svg>