<svg id="Слой_1" data-name="Слой 1" xmlns="http://www.w3.org/2000/svg" viewBox="0 0 150 190"><defs><style>.cls-1{fill-rule:evenodd;}</style></defs><title>Монтажная область 41</title><path class="cls-1" d="M101.43,102c-8.4-5.47-19.55-6.22-27-.24-6-6.1-17.84-6-24.89-.23-6.69-5.43-17.37-6-24.87-1.26.16-18.08,16.35-36.39,46-38,0-3.49,0-7.17,0-7.17l9.32,1.12s0,2.78.09,6.1c30,1.91,45.3,20.29,45.12,38.86C120.38,97,107.06,96,101.43,102ZM61.73,133.8c.31,6.66,9.47,7.24,9.33.09,0-2.54-.18-29-.18-29l9.37.09s0,22.93.14,29c.29,19.14-28.56,18.94-28-.25C52.54,128.93,61.48,128.5,61.73,133.8Z"/></svg>