<svg id="Слой_1" data-name="Слой 1" xmlns="http://www.w3.org/2000/svg" viewBox="0 0 150 190"><defs><style>.cls-1{fill-rule:evenodd;}</style></defs><title>Монтажная область 9</title><path class="cls-1" d="M108.33,123.63l-3.16-5.48,2-19.6L104.06,93l1.32-12C115.77,93.36,115.42,110.35,108.33,123.63Zm-11.14-4.37,8.13,9.22a38.82,38.82,0,0,1-14.4,12.43l-4.75-8.79,3.42-20.87-2.39-5.19,1.93-19.8L82,79.53l1.31-11.64a42.79,42.79,0,0,1,5.18,1.62c-1.87-7.9-5-11.22-8.53-11.56-6.91-.66-15.45,10.48-18.68,47.36-3.52,40.27,8.63,46.94,8.63,46.94l15-2.44c-4.36,6.45-9.35,8.79-14.07,8.28-6.3-.68-12.13-6.31-14.82-19.64a47.07,47.07,0,0,1-5.75-3.92l4-13.55-2.54-5.12L54.2,97l-3.42-5.14,1.78-17.51a37,37,0,0,1,10.11-5.55C67.77,56,74.44,51.4,80.65,51.9c6.47.53,12.43,6.62,15,21.09a40.78,40.78,0,0,1,6.19,4.48l-4,14,4.64,6.36Zm-49-17.07-4.82,14.73,4.82,6.3L47,131.57c-16.15-16.09-12.11-40.5,2.14-54.31L44,94.7Zm22.52,41.67c-7-16.46-5.23-54.84,2.74-77.08a36.32,36.32,0,0,1,6.36.41l-5,18,7.69,3-4.76,18.69,4.64,6.43L78.08,132l8.41,10.75A33.39,33.39,0,0,1,70.72,143.86Z"/></svg>