<svg id="Слой_1" data-name="Слой 1" xmlns="http://www.w3.org/2000/svg" viewBox="0 0 150 190"><defs><style>.cls-1{fill-rule:evenodd;}</style></defs><title>Монтажная область 4</title><path class="cls-1" d="M78.33,124.62A123.66,123.66,0,0,1,78.11,108c16.68-1.93,30.44-11.6,38.25-18.39A51.24,51.24,0,0,1,118.87,111C109.64,116.36,93.78,124.07,78.33,124.62ZM59.5,62.9a47.27,47.27,0,0,1,15.2-2.4c19.46,0,32.53,10,39.19,23.27a85.46,85.46,0,0,1-15.06,11C91.18,78.83,70.89,68,59.5,62.9ZM77,102.12c-13.3-13-30-16.85-41.43-17.77A41.43,41.43,0,0,1,52,66.28c8.06,3.19,33.49,14.37,41.45,31.16A53.45,53.45,0,0,1,77,102.12ZM49.09,133.63c.37,2.75.8,5.33,1.24,7.68-17.74-11.15-23-32.91-17.17-51a72.68,72.68,0,0,1,17.78,3.27C47.59,104.55,47,118,49.09,133.63Zm23.17-27.69c-1.27,13.93,1.28,32.63,2.94,42.67a55,55,0,0,1-18-3.8c-2.51-11.4-5.65-32.06-.61-49.16A53.7,53.7,0,0,1,72.26,105.94ZM112.85,121q2.49-1.2,4.7-2.39c-4.07,15.83-16.15,29-36.25,30-.74-4.42-1.73-10.94-2.44-18C89.11,130.2,100.53,127,112.85,121Z"/></svg>