<svg id="Слой_1" data-name="Слой 1" xmlns="http://www.w3.org/2000/svg" viewBox="0 0 150 190"><defs><style>.cls-1{fill-rule:evenodd;}</style></defs><title>Монтажная область 1</title><path class="cls-1" d="M76.54,148.37c-61.79,0-59-88.28-1-88.28C133.34,60.09,133,148.37,76.54,148.37Zm23-72.86L93.08,75l-4.39,3-5-1.79-6.34,1.63,3.29-7.23,5.1.42.47-2.52a40.82,40.82,0,0,0-10.76-1.37l-1,0-6.84,5.73-2.27-4.57a35.28,35.28,0,0,0-9.88,4l1.79,5.23L48.46,78a36.34,36.34,0,0,0-7.67,12.2l2.45.07,3.94-3.34,8.27.59-6.7,5.82L46,98.6l-7.64,1.76c-1.08,10.31,1.75,21,8.65,28.91l3.06-6.36-3.24-9.42,5.51-5.8-1.21-5.86L59.8,96.7,58,104.64,60.4,113l-3.71,5.58,3.82,7.49L57.85,131l4.28,8.23a44.81,44.81,0,0,0,14.16,2.15,36.73,36.73,0,0,0,16.44-3.63l-1.55-4.43-8.45.64-.91-9.21-8.74-4.29-.42-10.25L68,106.67l3.13-12.39,4.74,8.18,5.77,1.9,0,8.18,7.9,2.09.79,8,6.94.1,2.84,4.67,4.33.57a38,38,0,0,0,6.68-15.39L108.21,102l-7.68,0-4.08-6.11-7.6.87L85.67,91.3l-7.46-3.2,8.42-3.93L90,88l7-2.45,7.55,6.17,5.08-.92A35.43,35.43,0,0,0,99.53,75.51ZM60.35,88.05c-4-6.84,8.26-13.48,12-7S64,94.3,60.35,88.05Z"/></svg>