<svg id="Слой_1" data-name="Слой 1" xmlns="http://www.w3.org/2000/svg" viewBox="0 0 150 190"><defs><style>.cls-1{fill-rule:evenodd;}</style></defs><title>Монтажная область 2</title><path class="cls-1" d="M100.86,98.71c-5.45,7.14-25,7.47-31.61.56-6.19,7.11-27.59,7.92-34.57-5.68L38.84,89c6.21,9.59,22.53,10.62,29.82,0a13.2,13.2,0,0,1,1.39-.09c5.78,9.71,24.43,10,29.71,0,.31,0,1.73,0,1.73,0,7,9.3,22.52,9.24,29.87.41l4,3.61C128.74,106.83,108.77,106.41,100.86,98.71ZM41.05,112.94c5.78,9.71,24.43,10,29.71-.06l1.73,0c7,9.3,22.52,9.24,29.87.41l4,3.61c-6.58,14-26.55,13.54-34.46,5.84-5.45,7.14-25,7.47-31.61.56-6.18,7.11-27.59,7.91-34.57-5.68L9.84,113c6.21,9.59,22.53,10.62,29.82,0A13.2,13.2,0,0,1,41.05,112.94ZM58.66,133a13.2,13.2,0,0,1,1.39-.09c5.78,9.71,24.43,10,29.71-.05.31,0,1.73,0,1.73,0,7,9.3,22.52,9.24,29.87.41l4,3.61c-6.58,14-26.55,13.54-34.46,5.84-5.45,7.14-25,7.47-31.61.56-6.18,7.11-27.59,7.92-34.57-5.68L28.84,133C35.05,142.62,51.37,143.65,58.66,133Z"/></svg>