<svg id="Слой_1" data-name="Слой 1" xmlns="http://www.w3.org/2000/svg" viewBox="0 0 150 190"><defs><style>.cls-1{fill-rule:evenodd;}</style></defs><title>Монтажная область 26</title><path class="cls-1" d="M57.16,121.57l-3.16,16,10.24-6,5.88,4.69L51.05,147.56l-7-.28,13.39-59.6,6.25.09,11.67,9.87L87.2,87.77l5.33-.09,13.39,59.6-6.76.28ZM88.05,96.29l-7.31,5.86,10.35,8.75Zm5,24.49-30.84-25-3,15.38,7.19-6,5.14,4.4-9.25,7.41,13.14,8.18,8.54-5,5.54,4.74-7.42,4.37,14.73,9.17Zm6-48.73c.81,17.42-49.21,17.42-48,0,.34-4.85.69-9.53.69-9.53l47-.83S98.94,67.58,99.14,72.05ZM47.72,56.59l-1-2.45L75.46,39.61l28.23,14.93-1,2.05Z"/></svg>