<svg id="Слой_1" data-name="Слой 1" xmlns="http://www.w3.org/2000/svg" viewBox="0 0 150 190"><defs><style>.cls-1{fill-rule:evenodd;}</style></defs><title>Монтажная область 5</title><path class="cls-1" d="M123.79,128.62c-.25,2.83-3.23.51-3.23.51l-1.44-21.77s-3.6-2.62-3.6,1.73-1.18,28.19-1.18,28.19-3.58,3-3.58-1-.18-23.81-.18-23.81-3.45-2.75-3.73,1.07c-.34,4.8-1,15.11-1,15.11s-3.25,2.81-3.25-1.33-.58-16.07-.58-16.07-3.56-2.09-3.56,1.07-.93,16.59-1,20-3.34,1.05-3.34,1.05l-.9-28.22S90,101,89.7,104.82c-.35,4.71-.67,11.33-.67,11.33s-3.49,1.24-3.55-2-1.31-19-1.31-19-2.68-4-2.94-.24-1,16.2-1,16.2-3.77,2.13-3.77-1.07-.43-17.87-.43-17.87-3.62-3.73-3.78,1-.92,13.52-.85,16.57-3.58,1.34-3.58,1.34L67.1,93.93s-3-2.7-3,2.19c0,6.36-1.26,24.09-1.31,26.77s-3.33,1.21-3.33,1.21L58.1,110.31s-2.58.56-2.67,4-1.09,12.6-1.09,15.74-3.78,1.67-3.78,1.67V90.88c0-12.24,8.29-19.59,15.33-20,.6-5.23,6.18-6.66,10.33-3.4,5.44-9.27,16.55-5.71,17.9,1.69,9.86-9.3,29.67-3.66,29.67,15.19C123.79,109,124,125.79,123.79,128.62ZM71.55,114.77l5.31-.11,3.35,10.08,4.93-6.21,5.51,2.22c-8.85,7.8-8.92,18.5-7.92,26.26l-27,0,1.77-3.66C69.05,142.4,75.6,128.42,71.55,114.77Z"/></svg>