<svg id="Слой_1" data-name="Слой 1" xmlns="http://www.w3.org/2000/svg" viewBox="0 0 150 190"><defs><style>.cls-1{fill-rule:evenodd;}</style></defs><title>Монтажная область 5</title><path class="cls-1" d="M100.77,108.82H79.88l4.43-6.7S95,102,99.78,102c22.87,0,24.19-29.37,5.1-29.37-14.21,0-13.75,18.16-3.28,18.17,5.49,0,7.2-5.32,4.67-8l-1.15.53a3.41,3.41,0,0,1-3.42,4.06c-4.31,0-6-10.86,3.13-10.86,12.8,0,11,20.56-3.54,20.56C83.73,97.17,81.06,66,104.85,66,132.48,66,131.05,108.82,100.77,108.82Zm-37.68,0c-4.43,0-23.89.07-34,.11l2.23-6.84,32.06,0c14.95,0,14.51-18.74,3.31-18.74-5.88,0-7.72,5.22-4.9,8.16l1.35-.68c-.59-2.56,1.47-3.89,3.44-3.89,5,0,7,11.11-3.1,11.11-13.36,0-11.81-21.51,3.21-21.51C85,76.49,88.35,108.8,63.09,108.8Zm26,15.2c10.07,0,8,11.11,3.1,11.11-2,0-4-1.32-3.44-3.89l-1.35-.67c-2.82,2.93-.78,8,5.1,8,11.2,0,11.64-18.34-3.31-18.34l-63.78,0,2.23-6.85,61.26.12c25.26,0,22,31.92,3.6,31.92C77.5,145.32,75.76,124,89.11,124Z"/></svg>