<svg id="Слой_1" data-name="Слой 1" xmlns="http://www.w3.org/2000/svg" viewBox="0 0 150 190"><defs><style>.cls-1{fill-rule:evenodd;}</style></defs><title>Монтажная область 35</title><path class="cls-1" d="M78.51,132.1l.83,2.22,39.87.87-1.8,11.75s-71.83.66-78.57.74c-21.92.25-22-48.86,1.5-49.13,3.22,0,18.24.29,34.51.68L69.08,85.59l11.17-1.21,20.21,15.49c12.12.3,21.21.55,21.21.55l5.79,29.68Zm13.36-14.43-37.72-1.42L40.49,122.5l-1.25-1.88L48,111.71c-1.82-3.73-4.67-6.27-8.58-6.27-14.76,0-15.47,36,.26,36,7.51,0,11.11-9.85,10.73-19.26l44.72-2.42Z"/></svg>