<svg id="Слой_1" data-name="Слой 1" xmlns="http://www.w3.org/2000/svg" viewBox="0 0 150 190"><defs><style>.cls-1{fill-rule:evenodd;}</style></defs><title>Монтажная область 12</title><path class="cls-1" d="M85.77,66.53l-3.14,7.66a10.16,10.16,0,0,1,1.49,6.14c-4.34-1.09-13.4-1.19-17.54.2a10.17,10.17,0,0,1,1.77-6.76L66,67.84l-16.29,2-6.07-5.18,1.74-2.2,5.47,2.92,17.63-2.64,4,8.06a9.18,9.18,0,0,1,6.16.12L83,61.77l17.5,3.78,3.49-3,2.4,1.32-3.8,6ZM60.58,92.37l-6.75,1.81c2.53-10.18,9-12.37,9-12.37l2.54,3.24c3.07-2.39,17.21-2.23,20.81,0l1.38-2.79s8.09,3.45,10.17,11.94l-6.53-1.43C89.15,96.29,64.38,96.86,60.58,92.37Zm40.4,15-5-1.58c-6.79,3.88-34.77,3.92-41.1-.39l-4.11,2.44S48.41,98.4,58,97.09c7.07,4,29.06,3.78,35.3.21C102.09,99,101,107.39,101,107.39Zm-3.82,3.23c7,3.31,2.83,11.32,2.83,11.32l-4-3.15c-7.3,4.64-33.05,4.46-40.75,0l-4.07,3.48s-4-9.07,3.23-11.7C63.18,114.52,90.9,114.05,97.16,110.62ZM97,123.79c4.6,5.87-2.16,13.34-2.16,13.34l-2.81-3.65c-8.49,2.49-23.42,2.06-31.13.05l-2.84,3.63s-8.5-7.18-3.18-13.25C63.56,128.3,89.7,128.11,97,123.79ZM62.61,138.06c7.06,1.81,19.81,1.37,27.66.18.22,3.16-1.47,5.57-4.11,7.19l4,10.32-2.83,1.52-6.62-9.81a22.93,22.93,0,0,1-8.3.11l-6.85,9.32-2.88-1.51L67,145.66A8,8,0,0,1,62.61,138.06Z"/></svg>