<svg id="Слой_1" data-name="Слой 1" xmlns="http://www.w3.org/2000/svg" viewBox="0 0 150 190"><defs><style>.cls-1{fill-rule:evenodd;}</style></defs><title>Монтажная область 1</title><path class="cls-1" d="M104.52,108.88l-.69,25.68-9.72.26c-2.19,7.37-8.24,13.41-18.15,13.41-10.36,0-16.68-5.49-19.21-12.4l-9.76.26-1.77-34.71,81.48.79-.13,6Zm-30,5c-19,1.18-18.11,30.14,2.11,28.88C95.14,141.6,93.46,112.69,74.55,113.86Zm.9,19.86c-7.56,0-7.21-10.79-.12-10.79S82.34,133.72,75.45,133.72Zm29.37-35.95-8-.14L96.41,88l-36.6.63-7.43-9.84-.17,18.09L45,96.73,44.07,79,38.21,92.24l-6.83-4.15,16-25.87H95.26l20.2,25.43-10.37.18Z"/></svg>